<?xml version="1.0" encoding="UTF-8"?>
<svg version="1.1" xmlns="http://www.w3.org/2000/svg" width="1024" height="1024">
<path d="M0 0 C337.92 0 675.84 0 1024 0 C1024 337.92 1024 675.84 1024 1024 C686.08 1024 348.16 1024 0 1024 C0 686.08 0 348.16 0 0 Z " fill="#FCF9F5" transform="translate(0,0)"/>
<path d="M0 0 C2.76112201 2.53578424 5.46900181 5.12471187 8.16894531 7.7253418 C9.08426025 8.59980957 9.08426025 8.59980957 10.01806641 9.49194336 C18.39787196 17.53159342 26.02975554 25.79716058 32.96191406 35.11694336 C34.07968967 36.60640649 35.23232106 38.0695386 36.38769531 39.5300293 C62.2084688 72.55442438 77.9308222 112.23888966 85.98144531 153.1003418 C86.27390137 154.57627808 86.27390137 154.57627808 86.57226562 156.08203125 C89.62637146 172.51468273 90.43050451 188.7622293 90.29051399 205.44621849 C90.25734726 209.96729867 90.2605469 214.48816928 90.26080227 219.00935078 C90.26066026 227.37241322 90.24575285 235.73488541 90.17260742 244.09765625 C90.12266222 249.96850756 90.11787937 255.83800925 90.14074516 261.70900917 C90.14130514 263.91372558 90.12614496 266.11851656 90.0933094 268.32298851 C89.86685712 284.16355373 92.84769582 296.47442645 99.07391167 311.01589394 C111.7782137 342.45021935 112.49533052 377.02610278 112.22938347 410.39677238 C112.19239949 415.23608144 112.18150452 420.07525298 112.17591858 424.91468811 C112.17432178 426.15167282 112.17432178 426.15167282 112.17269272 427.41364712 C112.17055479 429.09601777 112.16846772 430.7783885 112.16643059 432.46075928 C112.15167318 443.6849599 112.11920377 454.90851086 112.02172852 466.13232422 C111.9556174 473.7676909 111.92859198 481.4021094 111.94627959 489.03775603 C111.95402664 493.05884246 111.94213658 497.0776518 111.88184929 501.09834099 C111.82558138 504.86628036 111.82091086 508.63082782 111.85494614 512.39900017 C111.85992962 514.42620884 111.81050381 516.45332648 111.75907898 518.47988892 C111.85019344 523.87735427 111.9520345 527.3291937 115.5840168 531.49612617 C118.35228734 533.77427233 121.17159948 535.76370372 124.16894531 537.7253418 C125.34418115 538.71019146 126.5002698 539.7190949 127.62207031 540.7644043 C128.54503906 541.61776367 129.46800781 542.47112305 130.41894531 543.3503418 C132.34124658 545.13619194 134.25653804 546.92883799 136.16894531 548.7253418 C136.80445313 549.30670898 137.43996094 549.88807617 138.09472656 550.48706055 C144.1734393 556.24660459 149.13161581 563.06426489 154.16894531 569.7253418 C155.131875 570.99571289 155.131875 570.99571289 156.11425781 572.29174805 C179.79050559 604.83282348 189.76551318 643.70459133 190.60644531 683.4753418 C190.64092773 684.38010254 190.67541016 685.28486328 190.7109375 686.21704102 C190.74587849 691.72641309 189.78926882 695.38579356 186.83325195 700.04272461 C182.0703799 704.85799734 176.94737183 705.07981742 170.53588164 705.12992987 C169.38115398 705.12376391 168.22642633 705.11759796 167.03670692 705.11124516 C165.79797947 705.11650427 164.55925201 705.12176338 163.28298736 705.12718186 C159.83662488 705.1387538 156.39074126 705.13686631 152.94439863 705.12934854 C149.19809222 705.12445225 145.4518369 705.13686932 141.70554674 705.14707607 C135.13699862 705.16254697 128.56851684 705.16678815 121.99995232 705.16370773 C112.23229849 705.15913821 102.46471823 705.17160644 92.69707869 705.18733161 C74.23855756 705.2163676 55.78006138 705.22478489 37.32152011 705.22650278 C23.06972341 705.22788051 8.81793654 705.23405082 -5.43385696 705.24360466 C-9.5336757 705.24629721 -13.63349445 705.24896666 -17.7333132 705.25162929 C-18.75248717 705.25229244 -19.77166114 705.25295558 -20.82171917 705.25363882 C-49.49482507 705.27210517 -78.16792755 705.28394012 -106.84103966 705.28260899 C-108.46309917 705.28253888 -108.46309917 705.28253888 -110.11792756 705.28246736 C-115.59899642 705.28221803 -121.08006528 705.28192091 -126.56113414 705.28161324 C-127.64972942 705.2815534 -128.7383247 705.28149357 -129.85990771 705.28143192 C-132.06131267 705.28131061 -134.26271762 705.28118521 -136.46412257 705.28105574 C-170.72286468 705.27921702 -204.98151775 705.30174403 -239.24023438 705.34277344 C-277.71325882 705.38883085 -316.18622475 705.41467366 -354.65927851 705.41188377 C-358.75972597 705.41165987 -362.86017342 705.41151376 -366.96062088 705.41142082 C-367.9702855 705.41138586 -368.97995011 705.4113509 -370.02021062 705.41131487 C-386.28483508 705.41122246 -402.54938239 705.430399 -418.81398389 705.45621762 C-435.1527708 705.48161805 -451.49144453 705.48463987 -467.83024023 705.46488965 C-477.54235917 705.45378336 -487.25413484 705.45935809 -496.96621758 705.48871667 C-503.45004432 705.50666404 -509.93362142 705.5028889 -516.41743653 705.48130518 C-520.11422333 705.46961576 -523.81034404 705.46745931 -527.50708489 705.49167723 C-531.48742972 705.51752528 -535.46676658 705.49708361 -539.44713402 705.47200871 C-540.59717934 705.48691324 -541.74722466 705.50181778 -542.93211985 705.51717398 C-549.37594055 705.43087987 -553.31233101 704.55508509 -558.3211144 700.40221679 C-561.4794853 696.89466538 -562.0856204 693.95968968 -562.09667969 689.31518555 C-562.10308472 687.7214209 -562.10308472 687.7214209 -562.10961914 686.09545898 C-562.09547974 684.39631348 -562.09547974 684.39631348 -562.08105469 682.6628418 C-562.07356201 681.49269531 -562.06606934 680.32254883 -562.05834961 679.11694336 C-561.68081922 648.29865297 -554.55562385 618.87039105 -539.83105469 591.7253418 C-539.21617187 590.55745117 -538.60128906 589.38956055 -537.96777344 588.1862793 C-530.18161907 573.90360276 -520.1211339 561.38012863 -508.83105469 549.7253418 C-508.34636719 549.22019043 -507.86167969 548.71503906 -507.36230469 548.19458008 C-500.57453004 541.13944842 -493.52054939 534.79903274 -485.83105469 528.7253418 C-484.07551801 526.96980512 -484.69491655 524.49809117 -484.68629456 522.11428833 C-484.67939606 520.8950769 -484.67249756 519.67586548 -484.66539001 518.41970825 C-484.6626748 517.05560318 -484.66003769 515.69149794 -484.6574707 514.32739258 C-484.65116815 512.89996131 -484.64440268 511.47253202 -484.63720703 510.04510498 C-484.62250059 506.96052587 -484.61078961 503.87595453 -484.60125923 500.79135513 C-484.58580269 495.89650181 -484.56184456 491.00171313 -484.53636169 486.10690308 C-484.46519929 472.18337105 -484.40576714 458.25979959 -484.35424805 444.33618164 C-484.32574642 436.65382209 -484.2902455 428.9715245 -484.2475943 421.28923023 C-484.22540668 417.23036628 -484.20680949 413.17155882 -484.19714546 409.1126442 C-484.11726243 376.78406485 -484.11726243 376.78406485 -481.83105469 360.7253418 C-481.67693619 359.58282959 -481.52281769 358.44031738 -481.36402893 357.26318359 C-478.22626193 334.59286889 -473.13757578 310.33838399 -462.83105469 289.7253418 C-462.73615567 288.35652016 -462.70205038 286.9832199 -462.69975281 285.6111145 C-462.69574463 284.74851517 -462.69173645 283.88591583 -462.68760681 282.99717712 C-462.68813553 282.04782791 -462.68866425 281.0984787 -462.68920898 280.12036133 C-462.68399734 278.62193947 -462.68399734 278.62193947 -462.67868042 277.09324646 C-462.67130899 274.91341843 -462.66597103 272.73358282 -462.66238976 270.55374527 C-462.65520728 267.07612381 -462.63951718 263.59864209 -462.62104797 260.12106323 C-462.56873478 250.22843612 -462.52083832 240.33587696 -462.50512695 230.44311523 C-462.40817458 177.45787389 -462.40817458 177.45787389 -457.83105469 154.7253418 C-457.45773771 152.71133334 -457.08656433 150.69692636 -456.7175293 148.68212891 C-447.03774638 96.05603715 -419.32979582 49.15703806 -382.83105469 10.7253418 C-381.65349609 9.48397461 -381.65349609 9.48397461 -380.45214844 8.2175293 C-374.948605 2.5663058 -369.00753817 -2.37856699 -362.83105469 -7.2746582 C-361.75867426 -8.14871943 -360.68708421 -9.0237511 -359.61621094 -9.8996582 C-325.68521501 -37.4147366 -284.51742211 -55.67149452 -241.83105469 -64.2746582 C-241.00911621 -64.44046387 -240.18717773 -64.60626953 -239.34033203 -64.77709961 C-155.57763945 -81.04051291 -63.54640074 -57.30558088 0 0 Z " fill="#003272" transform="translate(697.8310546875,177.274658203125)"/>
<path d="M0 0 C0.92563751 -0.00349457 1.85127502 -0.00698914 2.80496216 -0.0105896 C19.9368887 -0.04642053 36.97592078 0.8561271 53.75 4.5625 C54.75071533 4.77865967 55.75143066 4.99481934 56.7824707 5.2175293 C94.4031489 13.57999877 128.52489284 29.44221169 158.75 53.3125 C159.31283691 53.75674316 159.87567383 54.20098633 160.45556641 54.65869141 C174.3157644 65.72271617 186.92338787 78.3043235 197.45996094 92.578125 C198.76458755 94.33211203 200.10120384 96.05738957 201.4453125 97.78125 C213.077147 112.89682516 222.20462779 129.82770969 229.75 147.3125 C230.04712891 147.99248047 230.34425781 148.67246094 230.65039062 149.37304688 C239.98580794 171.03365568 244.92489062 193.97496022 247.75 217.3125 C247.86714355 218.24578125 247.98428711 219.1790625 248.10498047 220.140625 C250.54300711 240.42732516 249.94667596 260.91871577 249.75 281.3125 C248.59775972 280.38288578 247.45340824 279.4434875 246.3125 278.5 C245.67441406 277.97792969 245.03632812 277.45585937 244.37890625 276.91796875 C242.75 275.3125 242.75 275.3125 241.75 272.3125 C240.76 271.9825 239.77 271.6525 238.75 271.3125 C236.52292113 269.20914774 234.40955777 267.02460496 232.328125 264.77734375 C228.74477203 261.02546676 224.89384837 257.69691242 220.8125 254.5 C220.26867676 254.06469971 219.72485352 253.62939941 219.16455078 253.1809082 C216.05283778 250.77648323 213.07249676 248.9243031 209.45703125 247.36328125 C204.93275527 245.3021377 200.80301822 243.35810041 197.75 239.3125 C195.21913798 232.03726757 195.27297446 224.12397087 194.94091797 216.49755859 C192.54344063 176.50076917 168.77347283 136.74924479 141.75 108.3125 C141.03287842 107.55453125 141.03287842 107.55453125 140.30126953 106.78125 C108.94269359 73.84930278 62.28818765 52.34682363 16.57324219 51.15136719 C15.14785055 51.13190852 13.72237274 51.11810101 12.296875 51.109375 C11.52271744 51.10236069 10.74855988 51.09534637 9.95094299 51.08811951 C7.46723534 51.07072483 4.98376633 51.06426751 2.5 51.0625 C1.65029633 51.06182526 0.80059265 51.06115051 -0.07485962 51.06045532 C-13.00824559 51.07677092 -25.57424551 51.51175666 -38.25 54.3125 C-39.03745605 54.48410645 -39.82491211 54.65571289 -40.63623047 54.83251953 C-73.91734884 62.33938739 -103.94138411 78.09371064 -128.984375 101.23828125 C-131.04515371 103.12495969 -133.1619155 104.90522426 -135.3125 106.6875 C-140.27556944 111.0114619 -144.18720936 116.16056619 -148.25 121.3125 C-148.90871094 122.10527344 -149.56742187 122.89804687 -150.24609375 123.71484375 C-156.16113358 130.86763839 -161.23011258 138.52010383 -166.25 146.3125 C-166.806875 147.16585937 -167.36375 148.01921875 -167.9375 148.8984375 C-179.16701964 166.78022693 -187.00792669 187.56127992 -190.875 208.25 C-191.00704834 208.94198486 -191.13909668 209.63396973 -191.27514648 210.34692383 C-192.01893334 214.65414779 -192.31143051 218.78328594 -192.31640625 223.15625 C-192.49265327 238.09648221 -192.49265327 238.09648221 -195.69238281 242.13134766 C-199.43814616 245.24256598 -203.74723205 247.18756079 -208.14013672 249.22021484 C-211.53292114 250.97667371 -214.281835 253.34836427 -217.125 255.875 C-217.91898193 256.56952271 -217.91898193 256.56952271 -218.72900391 257.27807617 C-220.24438186 258.61343498 -221.74741919 259.96275766 -223.25 261.3125 C-224.13300781 262.0859375 -225.01601563 262.859375 -225.92578125 263.65625 C-231.94275005 268.97139507 -237.62339646 274.58851293 -243.25 280.3125 C-243.91 280.9725 -244.57 281.6325 -245.25 282.3125 C-245.30149276 274.86420713 -245.33605877 267.41596154 -245.35986328 259.9675293 C-245.36980639 257.44342331 -245.38336559 254.91932848 -245.40087891 252.39526367 C-245.533373 232.78224056 -245.14598788 213.39385881 -241.125 194.125 C-240.91399658 193.09874512 -240.70299316 192.07249023 -240.4855957 191.01513672 C-233.80130261 159.91915495 -221.88498489 130.21139521 -203.25 104.3125 C-202.599104 103.40105225 -202.599104 103.40105225 -201.93505859 102.47119141 C-194.98534973 92.7892814 -187.56295068 83.84628326 -179.25 75.3125 C-178.68490723 74.72694336 -178.11981445 74.14138672 -177.53759766 73.53808594 C-170.17546033 65.92993408 -162.70573799 58.71608303 -154.25 52.3125 C-153.62174316 51.83490234 -152.99348633 51.35730469 -152.34619141 50.86523438 C-124.53989159 29.86503804 -94.91016871 15.53107505 -61.20458984 6.81933594 C-59.49330825 6.37559117 -57.78717896 5.91207303 -56.08203125 5.4453125 C-52.81849575 4.60895069 -49.56160083 3.93408361 -46.25 3.3125 C-45.5295752 3.17569824 -44.80915039 3.03889648 -44.06689453 2.89794922 C-29.4228475 0.26267437 -14.83359893 0.01794267 0 0 Z " fill="#6669FD" transform="translate(510.25,137.6875)"/>
<path d="M0 0 C15.25838716 -0.76086297 26.6251331 5.37151256 38.3984375 14.23046875 C44.59326957 18.29755886 49.70128155 19.38123485 57.0859375 19.48046875 C58.22417969 19.50625 59.36242187 19.53203125 60.53515625 19.55859375 C69.68589306 18.78138253 76.47040317 15.34354577 83.9609375 10.23046875 C96.78333604 1.52091502 109.88478913 -2.02085877 125.44921875 0.9140625 C138.57804889 3.77267057 149.3287709 9.27205568 159.3984375 18.23046875 C160.42904297 19.11992187 160.42904297 19.11992187 161.48046875 20.02734375 C176.10996988 33.53149864 185.83213844 55.34378017 186.7109375 75.03515625 C187.32629995 97.48221085 183.18761834 117.3234698 167.3984375 134.23046875 C151.6400513 150.5978747 131.19181703 159.08463027 109.3984375 164.23046875 C108.21580322 164.52896729 108.21580322 164.52896729 107.00927734 164.83349609 C92.07353687 168.47861684 77.12411748 168.62747006 61.8359375 168.66796875 C60.35838486 168.67722885 60.35838486 168.67722885 58.85098267 168.68667603 C38.40286674 168.76893868 18.11988832 166.82540399 -1.6015625 161.23046875 C-2.32649902 161.02583008 -3.05143555 160.82119141 -3.79833984 160.61035156 C-20.19199126 155.85537528 -34.96257298 148.85401808 -47.6015625 137.23046875 C-48.56255859 136.40675781 -48.56255859 136.40675781 -49.54296875 135.56640625 C-61.77311365 124.45804198 -68.49089733 106.77298327 -69.82275391 90.53344727 C-70.84197126 66.12210745 -65.13413105 42.50858063 -48.2890625 23.98046875 C-34.80368025 9.66879324 -19.57296505 1.73394135 0 0 Z " fill="#FBC5A7" transform="translate(453.6015625,408.76953125)"/>
<path d="M0 0 C0.77397629 -0.00705963 1.54795258 -0.01411926 2.34538269 -0.02139282 C35.0664301 -0.252029 35.0664301 -0.252029 50.546875 3.203125 C51.46388184 3.40711914 52.38088867 3.61111328 53.32568359 3.82128906 C87.29088089 11.62402792 118.89502775 26.0331132 143.97314453 50.66015625 C145.59692537 52.25219704 147.24078529 53.82152403 148.88671875 55.390625 C156.2322373 62.47132474 162.6218008 69.9055778 168.546875 78.203125 C169.32160156 79.26015625 170.09632813 80.3171875 170.89453125 81.40625 C193.38043675 112.94910638 205.58324617 149.60979027 206.546875 188.203125 C203.58646497 187.09513528 200.76550801 185.83244108 197.95703125 184.390625 C175.42587616 172.94639681 151.45781056 166.04657756 126.546875 162.203125 C125.76731445 162.08001953 124.98775391 161.95691406 124.18457031 161.83007812 C115.67548155 160.51138395 107.13691328 159.75358277 98.546875 159.203125 C98.216875 156.563125 97.886875 153.923125 97.546875 151.203125 C100.546875 150.203125 100.546875 150.203125 103.484375 151.140625 C111.50579622 153.59443529 119.71525085 152.93963304 127.29296875 149.4609375 C132.79429032 146.39087589 137.29710629 142.58765543 139.8828125 136.73046875 C141.8779804 129.13709446 141.76563602 120.82245789 138.484375 113.640625 C134.48879268 106.8650178 129.07212202 102.58570575 121.546875 100.203125 C118.81453688 99.89677194 116.39007876 99.72469806 113.671875 99.765625 C112.6202417 99.77589722 112.6202417 99.77589722 111.54736328 99.78637695 C105.76335323 99.96507756 101.37101642 101.04212441 96.546875 104.203125 C95.69029297 104.76386719 95.69029297 104.76386719 94.81640625 105.3359375 C90.44439278 108.59605619 87.0447444 112.8919936 86.22265625 118.359375 C86.16464844 119.0709375 86.10664062 119.7825 86.046875 120.515625 C85.881875 121.7325 85.716875 122.949375 85.546875 124.203125 C83.515625 125.43359375 83.515625 125.43359375 81.546875 126.203125 C80.680625 125.254375 79.814375 124.305625 78.921875 123.328125 C60.70251503 105.254812 37.20527716 95.83266883 11.796875 95.703125 C10.60167236 95.69667969 9.40646973 95.69023437 8.17504883 95.68359375 C-16.5999286 96.03798446 -39.83657219 106.53305636 -57.33984375 124.01171875 C-58.03722656 124.73488281 -58.73460937 125.45804687 -59.453125 126.203125 C-61.390625 125.46875 -61.390625 125.46875 -63.453125 124.203125 C-64.140625 122.25 -64.140625 122.25 -64.453125 119.953125 C-65.8737819 112.36414582 -70.26485322 107.53747238 -76.453125 103.203125 C-84.28102213 99.00960868 -93.93294111 98.57528571 -102.43359375 101.08203125 C-110.19631411 104.64043408 -114.6120438 109.65121312 -117.890625 117.453125 C-120.25354628 124.66052924 -119.88890982 131.47505405 -116.890625 138.453125 C-113.37887442 144.62721356 -107.57661958 149.60641019 -100.78125 151.7734375 C-93.98184389 153.02836145 -87.11976479 152.84729612 -80.515625 150.828125 C-78.3984375 150.2578125 -78.3984375 150.2578125 -76.453125 150.203125 C-73.85940023 151.7636648 -72.06579627 153.64814777 -70.453125 156.203125 C-70.453125 156.863125 -70.453125 157.523125 -70.453125 158.203125 C-72.08217773 158.39104614 -72.08217773 158.39104614 -73.74414062 158.58276367 C-110.19217198 162.8194159 -144.36240409 168.34076988 -177.453125 185.203125 C-178.93958383 185.94765434 -180.426562 186.69114775 -181.9140625 187.43359375 C-183.08195312 188.01753906 -184.24984375 188.60148438 -185.453125 189.203125 C-186.90462025 143.18284925 -165.32750781 97.81515095 -134.56640625 64.50390625 C-132.65716895 62.42527266 -130.83335856 60.29891754 -129.015625 58.140625 C-98.32070661 23.09082116 -46.40133453 0.28437334 0 0 Z " fill="#FB87A1" transform="translate(501.453125,187.796875)"/>
<path d="M0 0 C3 1 3 1 4.69140625 3.921875 C5.3203638 5.19533243 5.94370005 6.47157595 6.5625 7.75 C11.03885115 16.57120088 16.49173751 24.68889185 23.6796875 31.5625 C26.58759351 34.61726995 27.45356589 37.36240194 28.71484375 41.3046875 C29.9730967 43.94357666 31.09806583 45.16942563 33.12109375 47.20703125 C36.3559513 50.83659943 36.55476168 53.46778367 36.32250977 58.21948242 C36.25733154 59.07517822 36.19215332 59.93087402 36.125 60.8125 C35.71791218 72.00893772 37.77771519 79.207397 45.015625 87.9609375 C50.9144989 94.0223788 58.68777813 98.49014436 67.17456055 99.3046875 C71.38408825 100.06981194 74.62386502 101.63913381 78.32421875 103.66796875 C86.88140307 108.13911836 95.66233084 111.28858033 104.8125 114.3125 C106.4757126 114.87161457 108.1387129 115.43136106 109.80151367 115.99169922 C122.17764179 120.14312183 134.61916238 124.08388707 147.08642578 127.95166016 C162.47025077 132.72946426 177.73825415 137.84748519 193 143 C193 143.33 193 143.66 193 144 C97.63 144 2.26 144 -96 144 C-96 131.60770975 -96 131.60770975 -95.08203125 127.01953125 C-94.78232422 125.5029895 -94.78232422 125.5029895 -94.4765625 123.95581055 C-94.14785156 122.39987183 -94.14785156 122.39987183 -93.8125 120.8125 C-93.58691406 119.72042236 -93.36132812 118.62834473 -93.12890625 117.50317383 C-87.10243736 89.15156725 -74.92832542 63.11639453 -54.83984375 41.98046875 C-52.94680804 40.02640248 -52.94680804 40.02640248 -51.37890625 37.73828125 C-50.92386719 37.16464844 -50.46882813 36.59101562 -50 36 C-49.34 36 -48.68 36 -48 36 C-48 35.34 -48 34.68 -48 34 C-47.34 34 -46.68 34 -46 34 C-46 33.34 -46 32.68 -46 32 C-33.9529255 18.76406946 -15.83984939 7.91992469 0 0 Z " fill="#3271D0" transform="translate(260,709)"/>
<path d="M0 0 C4.68150447 1.3802612 8.72290654 3.35301643 12.875 5.875 C13.52065918 6.26647217 14.16631836 6.65794434 14.83154297 7.0612793 C27.69913002 15.02567432 39.14154063 24.50248665 50 35 C51.08667969 36.00933594 51.08667969 36.00933594 52.1953125 37.0390625 C75.98512768 59.67309719 90.55088063 91.03250075 96.3125 122.9375 C96.48434814 123.88463867 96.65619629 124.83177734 96.83325195 125.80761719 C97.06467896 127.18481934 97.06467896 127.18481934 97.30078125 128.58984375 C97.43653564 129.39284912 97.57229004 130.19585449 97.7121582 131.02319336 C98.1285822 135.32977338 98 139.6733338 98 144 C2.63 144 -92.74 144 -191 144 C-188.31235221 142.2082348 -186.38773264 141.3482233 -183.36767578 140.36767578 C-181.95943039 139.90677048 -181.95943039 139.90677048 -180.5227356 139.43655396 C-179.50718597 139.10944427 -178.49163635 138.78233459 -177.4453125 138.4453125 C-176.3927829 138.10249237 -175.3402533 137.75967224 -174.25582886 137.40646362 C-170.88026961 136.30833001 -167.50263882 135.2167183 -164.125 134.125 C-161.8878909 133.39753486 -159.65091023 132.66967464 -157.4140625 131.94140625 C-147.95125616 128.86527767 -138.48654085 125.80441286 -128.96679688 122.90869141 C-98.90634551 114.26196223 -98.90634551 114.26196223 -70.65234375 101.30859375 C-66.83858651 99.4269904 -62.93036325 98.62260961 -58.796875 97.70703125 C-49.57803371 95.37656997 -43.41105276 90.22337694 -38.35546875 82.30859375 C-32.46351554 72.27359564 -32.03887839 62.27644927 -34 51 C-33.34 51 -32.68 51 -32 51 C-31.74347656 50.48695313 -31.48695313 49.97390625 -31.22265625 49.4453125 C-30.61744141 48.23488281 -30.61744141 48.23488281 -30 47 C-29.19369141 45.35644531 -29.19369141 45.35644531 -28.37109375 43.6796875 C-24.68104554 36.34396814 -20.90163222 30.35103092 -15.1640625 24.38671875 C-8.7509124 17.31373191 -4.4313291 8.39193093 0 0 Z " fill="#3271D0" transform="translate(762,709)"/>
<path d="M0 0 C6.08467575 1.21693515 11.83077341 2.41399955 17.7578125 4.07421875 C18.83962799 4.37496056 18.83962799 4.37496056 19.94329834 4.68177795 C21.5122156 5.11801707 23.08072596 5.55572174 24.64886475 5.99475098 C29.03941728 7.22309704 33.4337079 8.43790768 37.828125 9.65234375 C38.7805307 9.91564484 39.7329364 10.17894592 40.71420288 10.45022583 C53.41562139 13.95325442 66.14604834 17.3486824 78.875 20.75 C80.03340393 21.05956635 81.19180786 21.36913269 82.38531494 21.68807983 C84.67095939 22.29882072 86.95661401 22.90952357 89.24227905 23.52018738 C99.66555208 26.30501441 110.08821252 29.09208101 120.5078125 31.890625 C121.61808807 32.1881366 122.72836365 32.48564819 123.87228394 32.79217529 C124.89556793 33.06732971 125.91885193 33.34248413 126.97314453 33.62597656 C127.87404816 33.86785706 128.77495178 34.10973755 129.70315552 34.35894775 C131.48352377 34.85585082 133.24644322 35.41548107 135 36 C134.67 90.12 134.34 144.24 134 200 C121.62753417 196.62569114 121.62753417 196.62569114 117.13769531 195.19750977 C116.12193924 194.87570236 115.10618317 194.55389496 114.05964661 194.22233582 C112.99324448 193.88212906 111.92684235 193.5419223 110.828125 193.19140625 C109.68256638 192.82811722 108.53700775 192.46482819 107.35673523 192.0905304 C104.91405135 191.3158405 102.47164955 190.5402607 100.0295105 189.76385498 C93.65287211 187.73697709 87.27394067 185.71735577 80.89453125 183.69921875 C79.94174632 183.39772541 79.94174632 183.39772541 78.96971321 183.0901413 C66.97599479 179.29609199 54.96422205 175.56298013 42.9375 171.875 C42.10472534 171.61961456 41.27195068 171.36422913 40.41394043 171.10110474 C35.94357437 169.73095712 31.47229212 168.36384709 27 167 C28.39469264 164.11357964 29.88065813 161.83483634 31.9375 159.375 C37.0680408 152.62626907 38.54647016 145.3336699 38 137 C37.71125 135.824375 37.4225 134.64875 37.125 133.4375 C37 130 37 130 38.05859375 128.4296875 C39.10347515 127.30610075 40.16327841 126.19628103 41.234375 125.09765625 C49.19870721 115.6356067 50.86024686 104.89026136 50 93 C48.43291628 86.30132605 45.69340579 79.14975026 40.328125 74.57421875 C39.88984375 74.05472656 39.4515625 73.53523437 39 73 C39.44833809 70.96523482 39.90961787 68.9326887 40.42578125 66.9140625 C42.39486571 56.92129374 42.07723299 47.55818146 36.89453125 38.625 C31.35768475 30.95332814 24.92701699 26.85213359 16 24 C15.01 23.67 14.02 23.34 13 23 C10.60745424 22.77439324 8.21071877 22.59151405 5.8125 22.4375 C2.4403125 22.2209375 2.4403125 22.2209375 -1 22 C-0.67 14.74 -0.34 7.48 0 0 Z " fill="#EA634D" transform="translate(340,631)"/>
<path d="M0 0 C0 7.59 0 15.18 0 23 C-3.58875 23.0928125 -3.58875 23.0928125 -7.25 23.1875 C-17.71575573 23.71804678 -26.62511453 26.74179376 -34.31640625 34.11328125 C-40.42824382 40.9625099 -43.39307085 48.29914132 -43.203125 57.52734375 C-42.8974084 61.24885548 -42.19656331 64.86653905 -41.4375 68.51953125 C-41 71 -41 71 -41 75 C-42.18536901 76.44878435 -43.37785092 77.89310585 -44.625 79.2890625 C-51.80226443 88.21986312 -51.9166528 99.06057618 -51 110 C-49.51009417 117.25973222 -45.44553458 122.41265704 -40.70703125 127.96875 C-39 130 -39 130 -38 132 C-38.32062711 133.33644571 -38.65692371 134.6691403 -39 136 C-39.82958026 146.03656122 -38.78779892 154.53222954 -32.375 162.5625 C-30.24724599 165.0132606 -30.24724599 165.0132606 -28 166 C-28 166.66 -28 167.32 -28 168 C-53.44474142 176.17260465 -78.89945453 184.31370624 -104.38494873 192.35842896 C-106.79675912 193.12003722 -109.20825809 193.88263238 -111.6194458 194.64620972 C-114.99539994 195.71492479 -118.37251383 196.77988816 -121.75 197.84375 C-123.26839981 198.32540367 -123.26839981 198.32540367 -124.81747437 198.81678772 C-126.19946518 199.25069069 -126.19946518 199.25069069 -127.609375 199.69335938 C-128.41342773 199.94710327 -129.21748047 200.20084717 -130.04589844 200.46228027 C-132 201 -132 201 -134 201 C-134 146.88 -134 92.76 -134 37 C-109.84713789 30.09918225 -109.84713789 30.09918225 -101.50390625 27.8515625 C-100.54933029 27.59315079 -99.59475433 27.33473907 -98.61125183 27.0684967 C-95.5953919 26.2525444 -92.57895768 25.43873941 -89.5625 24.625 C-87.43845083 24.05063225 -85.3144277 23.4761682 -83.19042969 22.90161133 C-71.71804523 19.80049114 -60.23824792 16.72926148 -48.75 13.6875 C-26.0865902 7.77329201 -26.0865902 7.77329201 -3.70898438 0.89599609 C-1 0 -1 0 0 0 Z " fill="#EA634D" transform="translate(685,630)"/>
<path d="M0 0 C35.1611861 6.44433314 68.20054822 23.28596205 94 48 C94.94101562 48.86625 95.88203125 49.7325 96.8515625 50.625 C130.18412357 81.94447623 143.60116823 128.91107814 148 173 C148.08084682 173.74431337 148.16169363 174.48862675 148.24499035 175.25549507 C148.97966373 182.48984875 149.13628631 189.63926805 149.11352539 196.90698242 C149.11367142 198.14729218 149.11381744 199.38760193 149.1139679 200.66549683 C149.11339507 204.03046533 149.1084175 207.3953707 149.10139394 210.76032805 C149.09509644 214.29035613 149.09455158 217.82038526 149.09336853 221.35041809 C149.09027393 228.01888636 149.08208603 234.68733803 149.07201904 241.35579902 C149.06079946 248.9544562 149.05533279 256.55311421 149.05032361 264.15177763 C149.03990164 279.7678616 149.02213479 295.38392799 149 311 C145.37 309.02 141.74 307.04 138 305 C138.2165625 303.88753906 138.433125 302.77507812 138.65625 301.62890625 C140.93503161 288.51982985 141.335255 275.58477168 141.375 262.3125 C141.38249268 261.45198029 141.38998535 260.59146057 141.39770508 259.7048645 C141.48689376 247.19689479 140.34804634 235.28318941 138 223 C137.85044861 222.21561554 137.70089722 221.43123108 137.54681396 220.62307739 C130.15223569 182.35546745 110.91710893 148.88535026 84 121 C83.36191406 120.29875 82.72382812 119.5975 82.06640625 118.875 C77.74698863 114.25735978 72.86738363 110.41790071 67.875 106.5625 C66.77623535 105.7125647 66.77623535 105.7125647 65.65527344 104.84545898 C62.16366157 102.19998565 58.70695121 99.75083474 54.85546875 97.65625 C45.59631051 92.60855292 45.59631051 92.60855292 43.90234375 88.0390625 C43.62355546 85.71672901 43.43280446 83.38278651 43.3125 81.046875 C41.87501827 53.2647761 22.49365479 27.15112295 5.38769531 6.67089844 C3.56112032 4.47155304 1.77647826 2.23990738 0 0 Z " fill="#4694E1" transform="translate(633,379)"/>
<path d="M0 0 C-0.65790527 0.63180176 -0.65790527 0.63180176 -1.32910156 1.27636719 C-20.4164811 19.93157964 -38.41342009 49.09834039 -41.63671875 75.97265625 C-43.40464965 89.51600296 -43.40464965 89.51600296 -47.91015625 93.70703125 C-50.85033037 95.46676996 -53.97548844 96.78067126 -57.12744141 98.11181641 C-60.26859928 99.60171632 -62.91130886 101.65992125 -65.625 103.8125 C-66.15633545 104.23023682 -66.6876709 104.64797363 -67.23510742 105.07836914 C-73.0897707 109.7633498 -78.57185039 114.83289294 -84 120 C-85.13501953 121.03833984 -85.13501953 121.03833984 -86.29296875 122.09765625 C-119.46943282 153.46119879 -139.42865282 203.10901914 -141.20678711 248.2956543 C-141.32454665 252.59327544 -141.33158478 256.88859342 -141.3125 261.1875 C-141.31233887 261.93959747 -141.31217773 262.69169495 -141.31201172 263.46658325 C-141.2941756 275.50580154 -140.4742385 287.22069426 -138.27539062 299.08178711 C-138 301 -138 301 -138 305 C-141.63 306.65 -145.26 308.3 -149 310 C-149.07013017 294.61132989 -149.12332727 279.22268391 -149.15543652 263.83389091 C-149.17075674 256.68494016 -149.19155296 249.53609188 -149.22631836 242.38720703 C-149.25668525 236.13969563 -149.275682 229.89225855 -149.28226548 223.64467537 C-149.28609993 220.3516139 -149.29648041 217.05880843 -149.31719017 213.76580429 C-149.65026366 158.50515986 -141.24143886 98.88152879 -101.8125 56.98828125 C-99.84389679 54.92900012 -99.84389679 54.92900012 -98 52 C-97.34 52 -96.68 52 -96 52 C-95.75507813 51.4225 -95.51015625 50.845 -95.2578125 50.25 C-80.61909744 24.06397554 -35.89348223 8.61016603 -9.26977539 0.61328125 C-2.45569443 -1.22784722 -2.45569443 -1.22784722 0 0 Z " fill="#4694E0" transform="translate(391,380)"/>
<path d="M0 0 C1.36186176 0.24804132 2.72384952 0.49539148 4.0859375 0.7421875 C33.23266528 6.31592229 58.12967639 21.267662 79 42 C79.66 42.99 80.32 43.98 81 45 C80.01 45.21914063 79.02 45.43828125 78 45.6640625 C68.3206996 47.93375918 60.97657608 50.37872169 55.0625 58.875 C53.38726708 61.75950702 52.71377261 64.05972871 52.4375 67.375 C52.293125 68.57125 52.14875 69.7675 52 71 C49.97265625 72.2265625 49.97265625 72.2265625 48 73 C47.13375 72.05125 46.2675 71.1025 45.375 70.125 C27.15564003 52.051687 3.65840216 42.62954383 -21.75 42.5 C-23.54280396 42.49033203 -23.54280396 42.49033203 -25.37182617 42.48046875 C-50.1468036 42.83485946 -73.38344719 53.32993136 -90.88671875 70.80859375 C-91.58410156 71.53175781 -92.28148437 72.25492187 -93 73 C-94.9375 72.265625 -94.9375 72.265625 -97 71 C-97.6875 69.046875 -97.6875 69.046875 -98 66.75 C-99.41143712 59.2102718 -103.79021733 54.26211153 -110 50 C-115.04067746 47.48471205 -120.53962793 46.26758637 -126 45 C-113.13482087 22.19354608 -80.66947661 8.56110885 -56.90429688 1.76611328 C-38.53005817 -3.08075634 -18.61878189 -3.86595233 0 0 Z " fill="#FDCC4E" transform="translate(535,241)"/>
<path d="M0 0 C8.88796775 6.03009189 17.9297687 13.37448664 23.25439453 22.86621094 C23.25439453 23.52621094 23.25439453 24.18621094 23.25439453 24.86621094 C23.91439453 24.86621094 24.57439453 24.86621094 25.25439453 24.86621094 C25.50318359 24.13917969 25.75197266 23.41214844 26.00830078 22.66308594 C33.30908398 6.27637505 54.2113815 -4.77150917 70.23291016 -10.99658203 C74.21036604 -12.46908353 78.22042629 -13.82501326 82.25439453 -15.13378906 C82.9250293 -15.35486328 83.59566406 -15.5759375 84.28662109 -15.80371094 C148.31071952 -36.4483474 148.31071952 -36.4483474 170.62939453 -29.00878906 C176.25391695 -24.99127305 178.71503654 -20.31021023 181.25439453 -14.13378906 C161.66185235 -8.37593856 142.01817664 -2.82490589 122.27392578 2.38964844 C121.53743427 2.58418987 120.80094276 2.77873131 120.04213333 2.97916794 C112.63588245 4.93414997 105.22722074 6.8797627 97.81530666 8.81316185 C83.88702979 12.44819744 69.99017663 16.14696936 56.18408203 20.22558594 C55.09003555 20.54827454 53.99598907 20.87096313 52.86878967 21.20343018 C47.25392859 22.88575446 41.77275892 24.72426746 36.31689453 26.86621094 C24.83887583 30.96449737 16.92081261 28.64481945 5.94799805 24.4074707 C-2.67284178 21.125845 -11.41996489 18.54548784 -20.30810547 16.11621094 C-21.058078 15.91087738 -21.80805054 15.70554382 -22.58074951 15.49398804 C-27.42728821 14.17069774 -32.27840937 12.86489822 -37.13153076 11.565979 C-39.82899415 10.84388842 -42.52587005 10.11963483 -45.22265625 9.39501953 C-61.70588284 4.96871518 -78.20024894 0.58460173 -94.70654297 -3.75488281 C-96.2565183 -4.16297461 -97.80648595 -4.57109559 -99.35644531 -4.97924805 C-102.17101893 -5.72036085 -104.9865136 -6.45780129 -107.80273438 -7.19262695 C-115.85053971 -9.30827651 -123.81333179 -11.61900415 -131.74560547 -14.13378906 C-131.00447231 -17.43340162 -129.99280078 -19.49000585 -127.93310547 -22.19628906 C-127.43166016 -22.86789062 -126.93021484 -23.53949219 -126.41357422 -24.23144531 C-106.61712293 -46.80959935 -21.00335189 -13.64189737 0 0 Z " fill="#FAEAD1" transform="translate(487.74560546875,622.1337890625)"/>
<path d="M0 0 C5.64707372 4.0687049 10.87126337 8.41749473 15.9375 13.1875 C16.62972656 13.83662354 17.32195313 14.48574707 18.03515625 15.15454102 C23.54484399 20.40048083 28.43582783 25.90175885 33 32 C30.50900109 33.24549946 28.95792263 32.99960671 26.1875 32.875 C21.88374135 32.8128967 19.51684926 33.36236305 16 36 C15.34 36 14.68 36 14 36 C11.03207425 43.04882365 10.9617458 49.92719813 13.625 57.0625 C17.99700763 66.80015337 23.27959653 72.93238737 32.375 78.4375 C37.21886906 79.47547194 42.41459655 79.3465643 46.875 77.0234375 C50.41585378 74.27927582 52.2938094 71.07589977 54 67 C66.83178562 82.00272216 72.28497229 112.82136496 72 132 C71.11248047 132.14695312 71.11248047 132.14695312 70.20703125 132.296875 C64.14262438 133.4444626 60.58325301 134.82281347 56.58984375 139.734375 C51.92908418 146.64112734 52.06255087 153.92900938 53 162 C54.49183429 168.00440137 57.9555456 171.36309135 62.9609375 174.8125 C65.542014 176.31565566 68.10618475 177.27654619 71 178 C69.06242396 185.86677049 66.46150544 193.22932923 63.3125 200.6875 C62.89677734 201.68716797 62.48105469 202.68683594 62.05273438 203.71679688 C61.04108392 206.1470836 60.02347054 208.57467328 59 211 C56 211 56 211 54.25 209.3125 C53 207 53 207 53.1875 204.625 C53.74380164 202.82771778 54.36062952 201.04837686 55.02734375 199.2890625 C57.51195481 190.88728534 57.0922281 181.21292417 53.3203125 173.2734375 C47.8296455 163.81909373 41.17462165 157.98718117 31 154 C30.98541748 152.78940918 30.97083496 151.57881836 30.95581055 150.33154297 C30.89768315 145.82490019 30.8204511 141.31874951 30.73754883 136.8125 C30.70436735 134.86499032 30.67631443 132.91738603 30.65356445 130.96972656 C30.61989366 128.16430485 30.56757173 125.35974472 30.51171875 122.5546875 C30.50532883 121.68883026 30.4989389 120.82297302 30.49235535 119.93087769 C30.3694622 114.83739267 29.61438938 111.50181068 27 107 C27 106.34 27 105.68 27 105 C26.278125 104.71125 25.55625 104.4225 24.8125 104.125 C23.05226294 103.42090518 21.30040277 102.69504736 19.5625 101.9375 C17.00042542 100.83929742 17.00042542 100.83929742 14.09765625 100.96484375 C11 100 11 100 9.86450195 98.44604492 C8.76502619 96.20591353 7.80915439 93.93899571 6.875 91.625 C0.95597403 78.107381 -6.66630506 65.34398992 -16.28125 54.10546875 C-18.38727864 51.52558367 -20.18512182 48.78997721 -22 46 C-21.41992188 45.27296875 -20.83984375 44.5459375 -20.2421875 43.796875 C-12.01371083 33.20576642 -6.84547996 22.51701107 -3.078125 9.6640625 C-2.12199094 6.4145924 -1.09181356 3.20596165 0 0 Z " fill="#E9644D" transform="translate(679,501)"/>
<path d="M0 0 C0.4021875 1.54494141 0.4021875 1.54494141 0.8125 3.12109375 C4.99347518 18.56051108 10.85199628 32.50392095 21 45 C19.60532939 48.14321286 17.95506991 50.2352402 15.5625 52.6875 C5.71100626 63.6078719 -1.23793643 76.84541871 -7.90625 89.85546875 C-8.27089355 90.56445312 -8.63553711 91.2734375 -9.01123047 92.00390625 C-9.89564365 93.78932902 -10.69244279 95.61753171 -11.4765625 97.44921875 C-13 100 -13 100 -15.3046875 101.1015625 C-16.15289062 101.27429688 -17.00109375 101.44703125 -17.875 101.625 C-22.12691931 102.68488076 -24.87463392 103.77696623 -28 107 C-29.69906191 109.85909359 -30.25901508 111.99883447 -30.31884766 115.30957031 C-30.33871735 116.15013977 -30.35858704 116.99070923 -30.37905884 117.85675049 C-30.39638565 119.20383087 -30.39638565 119.20383087 -30.4140625 120.578125 C-30.43342865 121.5046991 -30.4527948 122.43127319 -30.4727478 123.38592529 C-30.53244767 126.34052371 -30.57889068 129.29516129 -30.625 132.25 C-30.6631886 134.25522517 -30.70224085 136.26043409 -30.7421875 138.265625 C-30.8381414 143.17695111 -30.92220803 148.088354 -31 153 C-32.21236328 153.58007812 -32.21236328 153.58007812 -33.44921875 154.171875 C-35.05216797 154.95304687 -35.05216797 154.95304687 -36.6875 155.75 C-37.74324219 156.26046875 -38.79898438 156.7709375 -39.88671875 157.296875 C-44.90754983 160.04352788 -48.38560348 163.11611463 -51.625 167.8125 C-52.19476563 168.62332031 -52.76453125 169.43414063 -53.3515625 170.26953125 C-57.03500613 176.3707803 -58.50818817 181.30505831 -58.375 188.3125 C-58.36919922 189.05363037 -58.36339844 189.79476074 -58.35742188 190.55834961 C-58.22029528 196.37924663 -57.23227097 201.59205784 -55 207 C-56.485 207.99 -56.485 207.99 -58 209 C-63.83284687 199.30383897 -68.65836134 189.44706802 -73 179 C-70 177 -70 177 -66.6875 176.1875 C-61.672567 174.57252158 -58.5711956 172.41759818 -55.73828125 168.05859375 C-52.28633954 161.28794317 -51.87062149 154.63780287 -53.66015625 147.2890625 C-55.72101493 141.34736605 -58.53154238 137.21112918 -64 134 C-66.95010515 132.76452603 -69.90489433 131.80009534 -73 131 C-71.01431112 108.38685645 -65.14070998 86.77434086 -56 66 C-54.95828125 67.56257812 -53.91980387 69.1278489 -52.921875 70.71875 C-50.16148108 74.91454876 -47.92384441 77.35871853 -43 79 C-36.61809826 79.72053729 -32.2970616 78.641087 -27 75 C-20.74177039 69.96090603 -17.07324235 64.36582783 -14 57 C-13.566875 55.96875 -13.13375 54.9375 -12.6875 53.875 C-11.46208447 48.75053507 -11.37798302 44.648345 -13.25 39.6875 C-15.70148849 35.9227141 -17.76686981 34.4110434 -22 33 C-23.64371491 32.90670066 -25.29114677 32.87004856 -26.9375 32.875 C-27.79214844 32.87242187 -28.64679688 32.86984375 -29.52734375 32.8671875 C-31.83495858 32.99113522 -33.77753183 33.40785145 -36 34 C-31.75706321 27.98184353 -27.04773879 22.73065806 -21.8125 17.5625 C-21.06798584 16.82330322 -20.32347168 16.08410645 -19.55639648 15.32250977 C-3.9677598 0 -3.9677598 0 0 0 Z " fill="#E9644D" transform="translate(346,501)"/>
<path d="M0 0 C3.39478519 2.93664954 6.7247366 5.93077269 10 9 C8.80077392 12.59767824 7.68892399 13.21156355 4.6875 15.4375 C1.52515181 17.8464785 -1.33145464 20.27205934 -3.98046875 23.2265625 C-4.73493286 24.05329468 -4.73493286 24.05329468 -5.50463867 24.89672852 C-6.48142497 25.98482858 -7.43495525 27.09438948 -8.3605957 28.22631836 C-10.41896787 30.48940651 -12.14543299 31.93623465 -15.24780273 32.16772461 C-17.87623681 31.92550695 -20.40931956 31.5036767 -23 31 C-24.61510172 30.74370946 -26.23100028 30.4923901 -27.84765625 30.24609375 C-28.68321045 30.11348145 -29.51876465 29.98086914 -30.37963867 29.84423828 C-51.41907324 26.65453057 -73.85301525 26.27454715 -94.80859375 30.24609375 C-95.48390137 30.36718506 -96.15920898 30.48827637 -96.85498047 30.61303711 C-98.42083205 30.89551773 -99.98192551 31.20474874 -101.53955078 31.52954102 C-107.95294086 32.6044142 -107.95294086 32.6044142 -110.75561523 30.98657227 C-112.34792249 29.44004937 -113.66540709 27.83564992 -115 26.0625 C-115.99919208 24.85696724 -117.0044704 23.65645431 -118.015625 22.4609375 C-118.50869141 21.87022461 -119.00175781 21.27951172 -119.50976562 20.67089844 C-122.8605405 16.91390249 -126.95359112 13.96318881 -131 11 C-125.93874872 -0.98008946 -109.18445697 -9.34135318 -97.75 -14.375 C-64.58412777 -27.78248026 -27.6682719 -22.75323432 0 0 Z " fill="#6669FD" transform="translate(573,304)"/>
<path d="M0 0 C3.00523767 0.97996881 3.93301045 1.54015201 5.875 3.9375 C6.70288086 6.1706543 6.70288086 6.1706543 7.33984375 8.76171875 C7.58283203 9.70853516 7.82582031 10.65535156 8.07617188 11.63085938 C8.31916016 12.61892578 8.56214844 13.60699219 8.8125 14.625 C11.85082867 26.93391641 15.38858042 36.59966508 26.5703125 43.6328125 C33.12158025 47.10935192 39.74935408 49.22454966 46.94140625 50.98046875 C49.8320661 51.9234936 51.11847615 52.50024718 52.875 54.9375 C53.375 57.8125 53.375 57.8125 52.875 60.9375 C48.95162111 65.90146072 45.02329932 67.17883923 39.1875 68.8125 C28.45886727 72.13549923 20.59047493 76.46616582 14.33984375 86.12890625 C10.94356102 92.64071234 9.28638002 99.70953223 7.875 106.875 C7.02078265 110.90839147 5.63001415 113.78891239 2.875 116.9375 C0.5 118.125 0.5 118.125 -2.125 117.9375 C-6.00954921 115.37950432 -8.26492398 113.61195896 -9.4453125 109.046875 C-9.73373885 107.59762368 -10.00133931 106.14410119 -10.25 104.6875 C-10.56152427 103.16148492 -10.87918611 101.63670929 -11.203125 100.11328125 C-11.35587891 99.38834473 -11.50863281 98.6634082 -11.66601562 97.91650391 C-13.94177935 88.10408862 -19.79068844 80.24300114 -27.81542969 74.36254883 C-32.51218653 71.46456049 -37.80429356 70.14508772 -43.0546875 68.57226562 C-48.09135249 66.96311964 -51.42206982 65.80580282 -54.125 60.9375 C-54.1875 57.3125 -54.1875 57.3125 -53.125 53.9375 C-49.3091952 51.05444748 -45.42466258 50.1272076 -40.8125 49.0625 C-34.85148493 47.57296686 -29.90484683 45.871259 -25.125 41.9375 C-24.51269531 41.43476563 -23.90039062 40.93203125 -23.26953125 40.4140625 C-14.52004356 32.46676664 -12.23268901 22.47475831 -10.08740234 11.24951172 C-9.20309113 6.98944533 -8.68694706 4.53958614 -5.6640625 1.30078125 C-3.125 -0.0625 -3.125 -0.0625 0 0 Z " fill="#FCC648" transform="translate(202.125,172.0625)"/>
<path d="M0 0 C4.95 0.99 4.95 0.99 10 2 C16.74649836 2.36967114 21.1515335 1.52188144 28 0 C28 55.11 28 110.22 28 167 C17.75757576 171.55218855 17.75757576 171.55218855 14 171.5 C12.88625 171.51546875 12.88625 171.51546875 11.75 171.53125 C9 171 9 171 0 167 C0 111.89 0 56.78 0 0 Z " fill="#FCCB4D" transform="translate(498,675)"/>
<path d="M0 0 C2.94941437 3.88620107 3.83239878 8.00976929 4.8125 12.6875 C6.88596833 21.55705621 9.64377284 28.94647759 17.3125 34.4375 C20.98083059 36.63112482 24.63892382 38.0689667 28.72265625 39.2890625 C31.19752203 40.06166211 33.55212393 40.98478394 35.9375 42 C36.66839844 42.309375 37.39929688 42.61875 38.15234375 42.9375 C40 44 40 44 42 47 C42 49.4375 42 49.4375 41 52 C37.56003994 54.99893954 34.49999711 56.2308367 30.125 57.4375 C21.43372711 59.8872141 15.14244692 64.54869936 10 72 C6.61155016 78.34248303 5.19327619 85.08934714 3.90625 92.1171875 C2.86403902 95.43249657 1.70990845 96.86139688 -1 99 C-4 99.5625 -4 99.5625 -7 99 C-11.26425896 94.90438405 -11.87647407 90.88130571 -12.8125 85.3125 C-14.75225949 75.49228247 -18.05572539 68.55876599 -26.375 62.5625 C-30.71982338 59.94087776 -35.13873987 58.37582834 -40 57 C-41.64946932 56.51212879 -43.29545894 56.01231681 -44.9375 55.5 C-45.66839844 55.2834375 -46.39929688 55.066875 -47.15234375 54.84375 C-49 54 -49 54 -51 51 C-50.80951355 47.95221678 -50.64957661 45.80591995 -48.70263672 43.39038086 C-46.76663202 41.80943065 -45.36596349 41.33050145 -42.9453125 40.75390625 C-42.16542969 40.55603516 -41.38554688 40.35816406 -40.58203125 40.15429688 C-38.95228268 39.76175807 -37.32207676 39.371113 -35.69140625 38.98242188 C-30.85927659 37.7524976 -27.792044 36.3955375 -24 33 C-23.34 33 -22.68 33 -22 33 C-21.71898437 32.42765625 -21.43796875 31.8553125 -21.1484375 31.265625 C-20.41622072 29.82111571 -19.65329197 28.39149203 -18.8515625 26.984375 C-15.56051565 20.9892196 -13.81132106 15.07646294 -12.34423828 8.44628906 C-11.59474924 5.1049188 -10.92590834 2.88886251 -9 0 C-5.40997619 -1.1966746 -3.61734062 -1.05505768 0 0 Z " fill="#FCC648" transform="translate(847,419)"/>
<path d="M0 0 C2.48870114 2.05317844 4.41845814 4.27584569 6.43359375 6.78515625 C10.77721234 12.09903769 14.99557582 15.14580193 22 16 C28.51866061 16.63908437 33.16247226 14.54116155 39 12 C39.99 11.67 40.98 11.34 42 11 C43.06716704 9.20067421 43.06716704 9.20067421 44 7 C45.36169827 4.40039421 46.43297053 2.44552315 48.75 0.625 C52.13593927 -0.31553869 54.62201008 0.14014802 58 1 C60.93442527 3.366472 60.99870535 4.99029013 61.5 8.75 C61.17066942 15.86354053 56.71538856 20.55418595 51.75 25.25 C40.89350547 34.4753017 28.66049009 35.04653444 15 34 C5.67610707 32.21067488 -2.55126435 26.94004371 -8 19.125 C-10.3132102 15.0108476 -11.34637519 10.72491288 -11 6 C-8.96182839 0.60426067 -5.58885336 -0.78243947 0 0 Z " fill="#033072" transform="translate(487,516)"/>
<path d="M0 0 C1.26679092 -0.01925285 1.26679092 -0.01925285 2.55917358 -0.03889465 C3.46857697 -0.04628159 4.37798035 -0.05366852 5.31494141 -0.0612793 C6.25326813 -0.06935104 7.19159485 -0.07742279 8.15835571 -0.08573914 C10.14380043 -0.09956777 12.12926881 -0.11029538 14.11474609 -0.11816406 C17.14808159 -0.13539341 20.18033165 -0.17929222 23.21337891 -0.22338867 C25.1430584 -0.23351452 27.07274715 -0.24203096 29.00244141 -0.2487793 C29.90779633 -0.26628738 30.81315125 -0.28379547 31.74594116 -0.30183411 C35.95919545 -0.28734691 38.19223905 -0.19671094 41.84082031 2.07861328 C45.43668728 5.94675803 45.12352301 9.2994194 45.07666016 14.4074707 C44.68161802 18.24424979 43.38658992 20.36565878 40.79150391 23.17700195 C38.00095159 24.85786413 35.91053616 25.43229512 32.66894531 25.4675293 C31.86776276 25.480289 31.0665802 25.49304871 30.24111938 25.50619507 C28.95508316 25.50953354 28.95508316 25.50953354 27.64306641 25.51293945 C26.7529184 25.51959625 25.86277039 25.52625305 24.94564819 25.53311157 C23.06453514 25.54322542 21.18338631 25.54792898 19.30224609 25.54760742 C16.43347631 25.55197611 13.56625116 25.58829586 10.69775391 25.6262207 C8.86702998 25.63209014 7.03629877 25.63605868 5.20556641 25.63793945 C4.35225739 25.65231049 3.49894836 25.66668152 2.61978149 25.68148804 C-2.80552037 25.64014583 -5.90238084 24.7876857 -10.20849609 21.17700195 C-13.11234638 16.98535719 -12.98015687 12.0770479 -12.20849609 7.17700195 C-9.45580181 1.89394638 -5.79749685 0.07690083 0 0 Z " fill="#F8C6A8" transform="translate(670.20849609375,719.822998046875)"/>
<path d="M0 0 C5.24885199 1.19710659 6.7906537 4.42646085 9.5625 8.8125 C12.68032442 13.33837416 15.24167597 15.21625279 20.5625 16.8125 C26.23084681 17.08659801 30.23028263 15.51293567 34.5625 11.8125 C37.35503579 8.57088729 39.96740834 5.21275137 42.5625 1.8125 C43.5625 0.8125 43.5625 0.8125 46.3125 0.5 C50.45283717 0.89810934 51.90152131 1.60367276 54.5625 4.8125 C55.82007858 10.37865213 54.52314789 15.10569151 51.75390625 19.96875 C46.71996947 27.75897347 40.4925684 32.38585098 31.5625 34.8125 C20.00800745 35.73446469 10.50397123 35.37811248 1.3125 27.75 C-4.3669214 22.30943277 -7.7852035 16.79150866 -9.0625 9 C-7.98286941 3.49388397 -5.38332252 1.27242169 0 0 Z " fill="#022F72" transform="translate(430.4375,473.1875)"/>
<path d="M0 0 C0.84122406 -0.0159874 1.68244812 -0.03197479 2.54916382 -0.04844666 C3.45026886 -0.05380936 4.3513739 -0.05917206 5.27978516 -0.06469727 C6.21432526 -0.07372574 7.14886536 -0.08275421 8.11172485 -0.09205627 C10.08698324 -0.10655009 12.06228955 -0.11544335 14.03759766 -0.11914062 C17.05144565 -0.13103484 20.06324423 -0.1802266 23.07666016 -0.23071289 C24.99852519 -0.24017789 26.92040277 -0.24741256 28.84228516 -0.25219727 C30.18787003 -0.28149574 30.18787003 -0.28149574 31.56063843 -0.31138611 C35.86689564 -0.28050542 38.80053674 -0.07543813 42.24707031 2.65380859 C45.64640114 6.33907395 46.04810538 9.27937158 45.97509766 14.24389648 C45.387285 18.55452264 42.93025737 21.33116944 39.61352539 23.94726562 C35.5813123 25.82428965 32.06390925 25.75553744 27.66650391 25.73999023 C26.36669838 25.74785301 26.36669838 25.74785301 25.04063416 25.75587463 C23.2125658 25.76228241 21.38445615 25.76097396 19.55639648 25.75244141 C16.76877961 25.74393442 13.98321527 25.77270389 11.19580078 25.80444336 C9.41520243 25.8060557 7.63460048 25.80547721 5.85400391 25.80249023 C4.61155663 25.8193412 4.61155663 25.8193412 3.3440094 25.83653259 C-2.00568089 25.77254034 -5.05316059 24.84518321 -9.30615234 21.30639648 C-12.24233957 17.10096405 -11.82520534 12.23340721 -11.30615234 7.30639648 C-9.04576021 1.88145536 -5.75889777 0.08314919 0 0 Z " fill="#F8C6A7" transform="translate(320.30615234375,719.693603515625)"/>
<path d="M0 0 C2.34511793 2.07727451 4.14240719 4.48797069 6 7 C10.54954369 12.89744224 10.54954369 12.89744224 17.3671875 15.3359375 C23.12461678 15.42561708 26.50632672 14.95871218 31 11 C32.85559512 8.86325411 34.5323002 6.69660921 36.109375 4.34765625 C38.4086486 1.17495729 39.60613999 0.07736536 43.5 -0.6875 C47 0 47 0 50 1.9375 C52.38473618 5.58912727 52.58807493 7.26403709 51.82421875 11.46875 C48.79689188 20.76594343 42.65549468 27.58209126 34 32 C25.5811864 34.91420471 15.37563653 35.86710863 7 32.3125 C5.64609748 31.57839526 4.31064466 30.80880923 3 30 C2.06607422 29.49146484 2.06607422 29.49146484 1.11328125 28.97265625 C-4.97438654 25.26195203 -7.89106519 19.21786961 -11 13 C-11.41329761 9.9415977 -11.47718082 7.05287274 -11 4 C-7.81896191 0.1640423 -4.89729363 -1.09939245 0 0 Z " fill="#022F72" transform="translate(551,474)"/>
<path d="M0 0 C0.73619064 -0.0066568 1.47238129 -0.0133136 2.23088074 -0.02017212 C3.7884166 -0.03029181 5.34599575 -0.03498935 6.90356445 -0.03466797 C9.27433798 -0.03902823 11.64322933 -0.07531472 14.01367188 -0.11328125 C15.52994158 -0.1191524 17.04622009 -0.1231198 18.5625 -0.125 C19.26582962 -0.13937103 19.96915924 -0.15374207 20.69380188 -0.16854858 C25.7493041 -0.12215843 28.59852733 1.14981237 32.48046875 4.3359375 C35.17884849 8.38350711 35.13744568 11.58299332 34.48046875 16.3359375 C32.81300062 19.73263183 31.67960888 21.7093925 28.30444336 23.47290039 C22.82723679 25.14679381 17.01947355 24.74740858 11.33374023 24.76147461 C9.05278549 24.77338623 6.77452649 24.82262307 4.49414062 24.87304688 C3.03256518 24.88251116 1.57097325 24.88974617 0.109375 24.89453125 C-1.2098999 24.90798584 -2.5291748 24.92144043 -3.88842773 24.93530273 C-8.61042764 24.15586955 -10.17465924 22.68649431 -13.51953125 19.3359375 C-15.25412561 15.86674878 -14.99127002 12.12897218 -14.51953125 8.3359375 C-10.88115406 1.43556697 -7.46997232 0.02343596 0 0 Z " fill="#FAC6A8" transform="translate(324.51953125,676.6640625)"/>
<path d="M0 0 C2.27947619 -0.00654395 4.55454984 -0.06098318 6.83325195 -0.11791992 C19.02627251 -0.25800402 19.02627251 -0.25800402 23.46411133 3.46606445 C26.66445343 7.39082508 27.33375374 9.35074575 27.26879883 14.4543457 C26.80213354 17.89360493 25.20238671 19.96737338 22.98364258 22.5559082 C17.91029884 25.98352658 11.22721549 24.92781423 5.33959961 24.92651367 C3.122506 24.9308809 0.90741475 24.96720448 -1.30932617 25.00512695 C-2.72989233 25.01099714 -4.15046788 25.01496518 -5.57104492 25.0168457 C-6.85479004 25.02506348 -8.13853516 25.03328125 -9.46118164 25.04174805 C-14.56941597 24.3436718 -17.72121144 22.19642645 -20.89135742 18.1809082 C-22.27420368 14.95426694 -22.5139483 13.03904438 -22.01635742 9.5559082 C-16.5812879 -0.34368271 -10.37659146 -0.00333903 0 0 Z " fill="#FAC7A8" transform="translate(686.016357421875,676.444091796875)"/>
<path d="M0 0 C0.66 0 1.32 0 2 0 C2.495 1.175625 2.99 2.35125 3.5 3.5625 C6.56642334 9.65215761 11.46755091 14.12340041 17.6875 16.9375 C24.81138749 19.20929089 32.86298541 18.78798503 39.9375 16.625 C42.0546875 16.0546875 42.0546875 16.0546875 44 16 C46.59372477 17.5605398 48.38732873 19.44502277 50 22 C50 22.66 50 23.32 50 24 C48.8668335 24.13575439 47.73366699 24.27150879 46.56616211 24.41137695 C42.2880904 24.92548994 38.01099658 25.44739271 33.73413086 25.97143555 C31.89681646 26.1955061 30.05925643 26.41757345 28.22143555 26.63745117 C18.02620678 27.8586532 7.96921548 29.23366008 -2.06420898 31.43823242 C-5 32 -5 32 -9 32 C-8.70690069 20.67570851 -4.50335112 10.2576331 0 0 Z " fill="#FBCF4D" transform="translate(381,322)"/>
<path d="M0 0 C1.19753906 -0.03738281 2.39507813 -0.07476563 3.62890625 -0.11328125 C4.78003906 -0.12488281 5.93117188 -0.13648438 7.1171875 -0.1484375 C8.70055908 -0.1781665 8.70055908 -0.1781665 10.31591797 -0.20849609 C13.125 0.375 13.125 0.375 15.46728516 2.76513672 C17.95322653 6.67893838 17.93195421 9.88376999 17.125 14.375 C14.760556 18.49088399 12.59880217 20.023971 8.125 21.375 C4.95448723 21.68436318 1.80864088 21.69968852 -1.375 21.6875 C-2.21675781 21.70361328 -3.05851563 21.71972656 -3.92578125 21.73632812 C-8.73740095 21.7401168 -11.97549002 21.50516759 -15.875 18.375 C-18.23443675 15.44604403 -18.84335188 13.62818497 -19.3125 9.875 C-18.80386205 5.8058964 -17.74154931 4.24154931 -14.875 1.375 C-10.52912178 -0.79793911 -4.77347623 0.05615854 0 0 Z " fill="#F9C8A8" transform="translate(687.875,763.625)"/>
<path d="M0 0 C1.77020508 -0.03577148 1.77020508 -0.03577148 3.57617188 -0.07226562 C12.1596198 -0.05769271 12.1596198 -0.05769271 16.34375 2.81640625 C18.88964922 6.88405887 18.98170572 9.91587294 18.0625 14.5625 C15.90518389 18.18370918 13.90096463 19.95514844 10.0625 21.5625 C6.94741414 21.9928404 3.8294779 21.9327104 0.6875 21.9375 C-0.15039062 21.96199219 -0.98828125 21.98648438 -1.8515625 22.01171875 C-7.37599372 22.03777739 -10.59053573 21.29039196 -14.9375 17.5625 C-17.06084287 14.3774857 -17.25696711 13.31793693 -17.3125 9.625 C-17.34085937 8.77035156 -17.36921875 7.91570313 -17.3984375 7.03515625 C-15.77939139 -1.6500657 -6.84260235 -0.06332294 0 0 Z " fill="#FAC8A8" transform="translate(335.9375,763.4375)"/>
<path d="M0 0 C2.63747708 2.63747708 3.38268785 5.59381688 4.5 9.0625 C4.83100708 10.07642822 4.83100708 10.07642822 5.16870117 11.11083984 C7.2829547 17.69534189 9.13287325 24.01811493 9 31 C8.1656543 30.85900879 7.33130859 30.71801758 6.47167969 30.57275391 C-9.65252348 27.86468622 -25.68862906 25.29947902 -42 24 C-42.33 21.36 -42.66 18.72 -43 16 C-40 15 -40 15 -37.0625 15.9375 C-29.03828776 18.39216408 -20.83709856 17.73075536 -13.25390625 14.26171875 C-6.88235678 10.69497615 -3.24256025 6.48512049 0 0 Z " fill="#F9CF4E" transform="translate(642,323)"/>
<path d="M0 0 C-1.32 0.33 -2.64 0.66 -4 1 C-3.505 4.96 -3.505 4.96 -3 9 C-3.94875 9.4125 -4.8975 9.825 -5.875 10.25 C-9.38336811 11.8302645 -9.38336811 11.8302645 -11 16 C25.63 16.33 62.26 16.66 100 17 C100 17.33 100 17.66 100 18 C47.53 18 -4.94 18 -59 18 C-56.2764117 16.18427447 -54.29129358 15.31652134 -51.22485352 14.32006836 C-50.25697403 14.00311508 -49.28909454 13.6861618 -48.29188538 13.35960388 C-47.24810226 13.02308304 -46.20431915 12.68656219 -45.12890625 12.33984375 C-43.51809425 11.81494102 -43.51809425 11.81494102 -41.8747406 11.2794342 C-39.6033088 10.54017813 -37.33115787 9.80312855 -35.05834961 9.06811523 C-31.57838674 7.94263803 -28.10054325 6.81080692 -24.62304688 5.67773438 C-22.41678765 4.9605652 -20.21041129 4.24375626 -18.00390625 3.52734375 C-16.96214737 3.18879868 -15.92038849 2.8502536 -14.84706116 2.50144958 C-13.87602951 2.18764847 -12.90499786 1.87384735 -11.90454102 1.55053711 C-11.05199234 1.27455185 -10.19944366 0.99856659 -9.32106018 0.71421814 C-8.55511032 0.47852615 -7.78916046 0.24283417 -7 0 C-6.30071884 -0.21760483 -5.60143768 -0.43520966 -4.88096619 -0.65940857 C-3 -1 -3 -1 0 0 Z " fill="#3677D7" transform="translate(630,835)"/>
<path d="M0 0 C0.99 0.495 0.99 0.495 2 1 C2 25.42 2 49.84 2 75 C2.99 75.33 3.98 75.66 5 76 C4.98952637 75.4237085 4.97905273 74.84741699 4.96826172 74.25366211 C4.67485919 55.41833397 5.25589691 36.52136105 9 18 C9.33 18 9.66 18 10 18 C9.85652682 20.14599243 9.71008875 22.29178669 9.5625 24.4375 C9.48128906 25.63246094 9.40007812 26.82742188 9.31640625 28.05859375 C9.10527705 30.6885859 8.826281 33.31399483 8.48046875 35.9296875 C7.66278985 43.14906281 7.75999929 50.43099949 7.75 57.6875 C7.74766357 58.45957794 7.74532715 59.23165588 7.74291992 60.02713013 C7.72901343 72.22675556 8.49601258 84.06022172 10.72460938 96.08178711 C11 98 11 98 11 102 C7.37 103.65 3.74 105.3 0 107 C0 71.69 0 36.38 0 0 Z " fill="#4E9FEA" transform="translate(242,583)"/>
<path d="M0 0 C2.31 0.66 4.62 1.32 7 2 C4 3 4 3 1 2 C1.02288437 6.04290478 1.10031108 10.08301092 1.1875 14.125 C1.19330078 15.26710938 1.19910156 16.40921875 1.20507812 17.5859375 C1.39081741 24.6853057 1.97661774 27.98462951 7 33 C7 34.32 7 35.64 7 37 C5.515 37.495 5.515 37.495 4 38 C3.505 36.515 3.505 36.515 3 35 C1.99820409 62.66108156 1.87350593 90.29697961 1.93133545 117.97387695 C1.94178426 123.52685143 1.94617796 129.07983091 1.95117188 134.6328125 C1.96172166 145.42188752 1.97866111 156.21094127 2 167 C1.34 167 0.68 167 0 167 C0 111.89 0 56.78 0 0 Z " fill="#FDE64B" transform="translate(498,675)"/>
<path d="M0 0 C7.08703739 0.54515672 13.32796106 2.60918605 20 5 C20 5.33 20 5.66 20 6 C-1.78 6 -23.56 6 -46 6 C-46 5.67 -46 5.34 -46 5 C-23.23 4.505 -23.23 4.505 0 4 C0 2.68 0 1.36 0 0 Z " fill="#3A7CDE" transform="translate(433,847)"/>
<path d="M0 0 C2.9390196 1.42210626 4.80234938 3.50580068 6.9375 5.9375 C6.9375 6.5975 6.9375 7.2575 6.9375 7.9375 C0.91153427 9.0087828 -4.95159517 9.03695415 -11.0625 8.9375 C-11.0625 8.6075 -11.0625 8.2775 -11.0625 7.9375 C-8.7525 7.9375 -6.4425 7.9375 -4.0625 7.9375 C-4.7643576 5.0865712 -4.7643576 5.0865712 -6.0625 3.9375 C-8.79032751 4.12057567 -11.48854382 4.45843494 -14.203125 4.78125 C-17.03994198 4.93626732 -19.31674222 4.61892894 -22.0625 3.9375 C-22.0625 3.6075 -22.0625 3.2775 -22.0625 2.9375 C-21.12148438 2.88851563 -20.18046875 2.83953125 -19.2109375 2.7890625 C-17.34308594 2.67691406 -17.34308594 2.67691406 -15.4375 2.5625 C-14.20773437 2.49289062 -12.97796875 2.42328125 -11.7109375 2.3515625 C-7.72105639 1.89874944 -3.93610095 -0.11927579 0 0 Z " fill="#FADD4C" transform="translate(424.0625,338.0625)"/>
<path d="M0 0 C0.33 0.66 0.66 1.32 1 2 C2.32 2 3.64 2 5 2 C5.33 3.65 5.66 5.3 6 7 C5.01 7 4.02 7 3 7 C3.99 7.33 4.98 7.66 6 8 C6 8.99 6 9.98 6 11 C11.28 11 16.56 11 22 11 C22 11.33 22 11.66 22 12 C13.98603754 12.6466598 6.04212755 13.16677223 -2 13 C-2 12.67 -2 12.34 -2 12 C-0.02 11.67 1.96 11.34 4 11 C2.7934375 10.195625 2.7934375 10.195625 1.5625 9.375 C-1.46508424 6.56894631 -1.72510809 5.03174806 -2 1 C-1.34 0.67 -0.68 0.34 0 0 Z " fill="#FDD647" transform="translate(498,270)"/>
<path d="M0 0 C1.9375 1 1.9375 1 3.9375 6 C11.5275 6 19.1175 6 26.9375 6 C26.9375 6.33 26.9375 6.66 26.9375 7 C15.7175 7 4.4975 7 -7.0625 7 C-3.5625 0 -3.5625 0 0 0 Z " fill="#397ADB" transform="translate(304.0625,846)"/>
<path d="M0 0 C0.99 0.33 1.98 0.66 3 1 C-2.94 6.94 -8.88 12.88 -15 19 C-15.66 18.34 -16.32 17.68 -17 17 C-11.39 11.39 -5.78 5.78 0 0 Z " fill="#002767" transform="translate(314,492)"/>
<path d="M0 0 C0.66 0 1.32 0 2 0 C2.99 2.97 3.98 5.94 5 9 C8.4120992 8.1469752 11.67485327 7.13357275 15 6 C14.0919838 7.13199353 13.17316174 8.25532363 12.25 9.375 C11.73953125 10.00148438 11.2290625 10.62796875 10.703125 11.2734375 C8.91800519 13.08312318 7.32050356 14.00117455 5 15 C2.72405671 12.72405671 2.54721447 11.7094379 1.9375 8.625 C1.35168758 5.72982788 0.73802261 2.86065401 0 0 Z " fill="#FADB47" transform="translate(435,299)"/>
<path d="M0 0 C0.33 0 0.66 0 1 0 C1.04898438 0.91523437 1.09796875 1.83046875 1.1484375 2.7734375 C1.22320313 3.96195313 1.29796875 5.15046875 1.375 6.375 C1.44460938 7.55835938 1.51421875 8.74171875 1.5859375 9.9609375 C1.70217346 13.10562319 1.70217346 13.10562319 4 15 C4.625 17.625 4.625 17.625 5 20 C5.33 20 5.66 20 6 20 C6 21.98 6 23.96 6 26 C5.67 25.34 5.34 24.68 5 24 C4.34 24 3.68 24 3 24 C2.34 24.66 1.68 25.32 1 26 C-0.30475618 23.39048764 -0.11301572 21.47298715 -0.09765625 18.5546875 C-0.09443359 17.47832031 -0.09121094 16.40195312 -0.08789062 15.29296875 C-0.07951172 14.16503906 -0.07113281 13.03710938 -0.0625 11.875 C-0.05798828 10.73933594 -0.05347656 9.60367188 -0.04882812 8.43359375 C-0.03701615 5.62234362 -0.02054507 2.8111977 0 0 Z " fill="#3A84D2" transform="translate(775,632)"/>
<path d="M0 0 C1.0725 0.165 2.145 0.33 3.25 0.5 C7.03028752 1.08810915 7.03028752 1.08810915 11 1 C11 1.66 11 2.32 11 3 C3.19436658 6.90281671 -4.48792953 6.27891493 -13 6 C-13 5.67 -13 5.34 -13 5 C-6.565 4.505 -6.565 4.505 0 4 C-0.33 3.34 -0.66 2.68 -1 2 C-0.67 1.34 -0.34 0.68 0 0 Z " fill="#EEC565" transform="translate(519,277)"/>
<path d="M0 0 C0.66 0.33 1.32 0.66 2 1 C-8.10679612 10 -8.10679612 10 -12 10 C-12.66 11.32 -13.32 12.64 -14 14 C-14.99 14 -15.98 14 -17 14 C-18.010625 14.515625 -19.02125 15.03125 -20.0625 15.5625 C-21.031875 16.036875 -22.00125 16.51125 -23 17 C-23.66 16.67 -24.32 16.34 -25 16 C-24.45585449 15.69296143 -23.91170898 15.38592285 -23.35107422 15.06958008 C-20.85548047 13.65675457 -18.36525176 12.23471857 -15.875 10.8125 C-15.0190625 10.32974609 -14.163125 9.84699219 -13.28125 9.34960938 C-8.44486762 6.57799024 -4.1522117 3.72337672 0 0 Z " fill="#0E1F65" transform="translate(613,549)"/>
<path d="M0 0 C1.32 0.66 2.64 1.32 4 2 C3.67 2.99 3.34 3.98 3 5 C5.31 5.33 7.62 5.66 10 6 C10 6.99 10 7.98 10 9 C2.57142857 9.28571429 2.57142857 9.28571429 -1 7 C-0.67 4.69 -0.34 2.38 0 0 Z " fill="#F9D64F" transform="translate(501,836)"/>
<path d="M0 0 C4.95 1.98 4.95 1.98 10 4 C9.34 6.31 8.68 8.62 8 11 C8.66 11.33 9.32 11.66 10 12 C9.34 12 8.68 12 8 12 C8 12.66 8 13.32 8 14 C7.34 14 6.68 14 6 14 C5.814375 15.2065625 5.814375 15.2065625 5.625 16.4375 C5.41875 17.283125 5.2125 18.12875 5 19 C4.34 19.33 3.68 19.66 3 20 C6.07517084 9.44191344 6.07517084 9.44191344 8 5 C5.36 4.34 2.72 3.68 0 3 C0 2.01 0 1.02 0 0 Z " fill="#0A2D71" transform="translate(742,674)"/>
<path d="M0 0 C0.66 0.33 1.32 0.66 2 1 C-1.46626256 4.50407634 -4.99685515 7.91170694 -8.625 11.25 C-10.03652344 12.55710937 -10.03652344 12.55710937 -11.4765625 13.890625 C-14 16 -14 16 -17 17 C-15.47229036 13.24473608 -13.21377694 11.14969375 -10.1875 8.5 C-8.90939453 7.37078125 -8.90939453 7.37078125 -7.60546875 6.21875 C-5.10916671 4.09296356 -2.57272863 2.03231705 0 0 Z " fill="#4E9FEB" transform="translate(312,415)"/>
<path d="M0 0 C1.3921875 0.2784375 1.3921875 0.2784375 2.8125 0.5625 C6.01343771 1.24123881 6.01343771 1.24123881 9 0 C9.33 2.31 9.66 4.62 10 7 C6 7 6 7 4.296875 5.46875 C3.78640625 4.8190625 3.2759375 4.169375 2.75 3.5 C2.22921875 2.8503125 1.7084375 2.200625 1.171875 1.53125 C0.78515625 1.0259375 0.3984375 0.520625 0 0 Z " fill="#FBD747" transform="translate(576,306)"/>
<path d="M0 0 C-2.31 2.31 -4.62 4.62 -7 7 C-7 6.01 -7 5.02 -7 4 C-10.78706732 4 -14.26513121 4.4254048 -18 5 C-17 3 -17 3 -13.69140625 1.89453125 C-12.31735719 1.52536385 -10.94090476 1.16505597 -9.5625 0.8125 C-8.86833984 0.62236328 -8.17417969 0.43222656 -7.45898438 0.23632812 C-2.25683532 -1.12841766 -2.25683532 -1.12841766 0 0 Z " fill="#52A5F0" transform="translate(391,380)"/>
<path d="M0 0 C0 4.26308255 -2.47727959 6.11692552 -5.25 9.0625 C-5.74113281 9.60455078 -6.23226563 10.14660156 -6.73828125 10.70507812 C-9.26949754 13.43541676 -11.48946736 15.65429582 -15 17 C-10.60502098 10.67467725 -5.54949524 5.32751543 0 0 Z " fill="#7472FB" transform="translate(334,210)"/>
<path d="M0 0 C1.41925776 2.83851552 0.52924344 4.87802959 -0.26171875 7.83203125 C-1.70718268 12.07664756 -3.8130116 15.8130116 -7 19 C-6.41249992 14.5470164 -5.26681981 10.81179158 -3.5 6.6875 C-3.0565625 5.63949219 -2.613125 4.59148438 -2.15625 3.51171875 C-1 1 -1 1 0 0 Z " fill="#3777D8" transform="translate(180,788)"/>
<path d="M0 0 C1.90389849 2.85584773 2.69462177 4.9311762 3.625 8.1875 C3.88539063 9.08855469 4.14578125 9.98960937 4.4140625 10.91796875 C4.60742188 11.60503906 4.80078125 12.29210937 5 13 C4.01 13.66 3.02 14.32 2 15 C-0.1752754 12.04162545 -1.06743756 10.66088811 -0.6875 6.9375 C-0.460625 5.968125 -0.23375 4.99875 0 4 C0 2.68 0 1.36 0 0 Z " fill="#F66E46" transform="translate(286,695)"/>
<path d="M0 0 C0.66 0.33 1.32 0.66 2 1 C-2.95 5.62 -7.9 10.24 -13 15 C-13.66 14.67 -14.32 14.34 -15 14 C-13.44073252 12.41348318 -11.87743482 10.83092685 -10.3125 9.25 C-9.44238281 8.36828125 -8.57226562 7.4865625 -7.67578125 6.578125 C-5.21997532 4.21194702 -2.69858952 2.08107444 0 0 Z " fill="#7673FB" transform="translate(350,195)"/>
<path d="M0 0 C1.203125 1.77734375 1.203125 1.77734375 2.25 3.9375 C2.60578125 4.64777344 2.9615625 5.35804688 3.328125 6.08984375 C3.54984375 6.72019531 3.7715625 7.35054687 4 8 C3.67 8.66 3.34 9.32 3 10 C2.7525 9.21625 2.505 8.4325 2.25 7.625 C1.23297575 4.93348267 1.23297575 4.93348267 -0.875 3.6875 C-3.26205534 2.79478648 -3.26205534 2.79478648 -7 3 C-7 2.34 -7 1.68 -7 1 C-3.375 -1.125 -3.375 -1.125 0 0 Z " fill="#397BDC" transform="translate(263,710)"/>
<path d="M0 0 C2 3 2 3 2 7 C-0.64 7 -3.28 7 -6 7 C-4.02 4.69 -2.04 2.38 0 0 Z " fill="#6C70F0" transform="translate(598,339)"/>
<path d="M0 0 C0.66 0.33 1.32 0.66 2 1 C-2.29 5.62 -6.58 10.24 -11 15 C-11 10.90139564 -9.38373445 9.89204368 -6.625 6.9375 C-5.40683594 5.62072266 -5.40683594 5.62072266 -4.1640625 4.27734375 C-2.79336781 2.83489789 -1.40702772 1.40702772 0 0 Z " fill="#F7DCB3" transform="translate(412,426)"/>
<path d="M0 0 C0.66 0.33 1.32 0.66 2 1 C2 1.99 2 2.98 2 4 C-0.99480917 4.8723412 -3.63575911 5.10829766 -6.75 5.0625 C-7.54921875 5.05347656 -8.3484375 5.04445313 -9.171875 5.03515625 C-9.77515625 5.02355469 -10.3784375 5.01195312 -11 5 C-11 4.34 -11 3.68 -11 3 C-10.37351562 2.95101563 -9.74703125 2.90203125 -9.1015625 2.8515625 C-8.28429687 2.77679688 -7.46703125 2.70203125 -6.625 2.625 C-5.81289063 2.55539062 -5.00078125 2.48578125 -4.1640625 2.4140625 C-1.79665809 2.17107412 -1.79665809 2.17107412 0 0 Z " fill="#092270" transform="translate(623,336)"/>
<path d="M0 0 C1.670625 0.495 1.670625 0.495 3.375 1 C7.37381943 2.25548752 7.37381943 2.25548752 11 1 C11 1.99 11 2.98 11 4 C11.99 4.33 12.98 4.66 14 5 C14 5.99 14 6.98 14 8 C9.02790438 6.23570801 4.56561939 3.6060834 0 1 C0 0.67 0 0.34 0 0 Z " fill="#FBDA47" transform="translate(550,289)"/>
<path d="M0 0 C0.84903735 2.9348614 1.10895545 5.5119254 1.0625 8.5625 C1.05347656 9.32691406 1.04445312 10.09132813 1.03515625 10.87890625 C1.01775391 11.92884766 1.01775391 11.92884766 1 13 C1 13.99 1 14.98 1 16 C0.34 15.67 -0.32 15.34 -1 15 C-1.33 15.66 -1.66 16.32 -2 17 C-2.21824777 10.9981863 -1.5056904 5.80766296 0 0 Z " fill="#3B7BDD" transform="translate(167,827)"/>
<path d="M0 0 C-2.0625 2.0625 -2.0625 2.0625 -5 4 C-8.8125 3.75 -8.8125 3.75 -12 3 C-11 1 -11 1 -7.6875 -0.1875 C-4.42437937 -0.90649268 -3.00717118 -1.20286847 0 0 Z " fill="#3777D7" transform="translate(662,825)"/>
<path d="M0 0 C0.66 0.33 1.32 0.66 2 1 C-2.29 4.63 -6.58 8.26 -11 12 C-11.66 11.67 -12.32 11.34 -13 11 C-11.39801112 9.53927468 -9.79332884 8.08150284 -8.1875 6.625 C-7.29417969 5.81289063 -6.40085938 5.00078125 -5.48046875 4.1640625 C-3 2 -3 2 0 0 Z " fill="#3A7ADB" transform="translate(230,728)"/>
<path d="M0 0 C0.66 0.33 1.32 0.66 2 1 C1.50628906 1.45890625 1.01257813 1.9178125 0.50390625 2.390625 C-0.13675781 3.00421875 -0.77742187 3.6178125 -1.4375 4.25 C-2.07558594 4.85328125 -2.71367188 5.4565625 -3.37109375 6.078125 C-5.14058786 7.87670597 -5.14058786 7.87670597 -5.53515625 10.171875 C-5.68855469 10.77515625 -5.84195313 11.3784375 -6 12 C-6.99 12.33 -7.98 12.66 -9 13 C-9 9.26130751 -8.09514308 8.63449295 -5.625 5.9375 C-4.99851562 5.24527344 -4.37203125 4.55304687 -3.7265625 3.83984375 C-2.50602933 2.53923035 -1.26120903 1.26120903 0 0 Z " fill="#F5F1E6" transform="translate(525,631)"/>
<path d="M0 0 C1.00109515 3.31070838 1.10356134 6.30084769 1.0625 9.75 C1.05347656 10.73484375 1.04445312 11.7196875 1.03515625 12.734375 C1.02355469 13.48203125 1.01195312 14.2296875 1 15 C0.01 15.33 -0.98 15.66 -2 16 C-1.85975781 13.52039864 -1.7130815 11.04147598 -1.5625 8.5625 C-1.52318359 7.85544922 -1.48386719 7.14839844 -1.44335938 6.41992188 C-1.11328125 1.11328125 -1.11328125 1.11328125 0 0 Z " fill="#50A0EC" transform="translate(247,529)"/>
<path d="M0 0 C0.66 0.33 1.32 0.66 2 1 C-0.80138349 4.11264832 -3.04929523 5.65097886 -7 7 C-7.928125 7.37125 -8.85625 7.7425 -9.8125 8.125 C-10.534375 8.41375 -11.25625 8.7025 -12 9 C-8.33494586 5.00175912 -4.88887148 2.39831431 0 0 Z " fill="#FCDA48" transform="translate(442,258)"/>
<path d="M0 0 C0 3 0 3 -1.96875 5.04296875 C-2.8040625 5.75066406 -3.639375 6.45835937 -4.5 7.1875 C-5.3353125 7.90292969 -6.170625 8.61835938 -7.03125 9.35546875 C-7.6809375 9.89816406 -8.330625 10.44085938 -9 11 C-9 8 -9 8 -7.03125 5.95703125 C-6.1959375 5.24933594 -5.360625 4.54164063 -4.5 3.8125 C-3.6646875 3.09707031 -2.829375 2.38164062 -1.96875 1.64453125 C-1.3190625 1.10183594 -0.669375 0.55914062 0 0 Z " fill="#505AFC" transform="translate(453,303)"/>
<path d="M0 0 C6.33393082 -0.34548714 11.10261508 0.70657253 17 3 C13.09366863 4.30211046 10.80461827 3.47812346 6.8125 2.5625 C5.54019531 2.27503906 4.26789063 1.98757813 2.95703125 1.69140625 C1.98121094 1.46324219 1.00539063 1.23507812 0 1 C0 0.67 0 0.34 0 0 Z " fill="#3778D9" transform="translate(347,820)"/>
<path d="M0 0 C0.99 0.33 1.98 0.66 3 1 C2.835 1.804375 2.67 2.60875 2.5 3.4375 C1.90752652 7.65887352 1.91493291 11.74664545 2 16 C1.34 16.33 0.68 16.66 0 17 C0 11.39 0 5.78 0 0 Z " fill="#092C6F" transform="translate(633,723)"/>
<path d="M0 0 C0.33 0 0.66 0 1 0 C1.33 4.95 1.66 9.9 2 15 C0.68 14.67 -0.64 14.34 -2 14 C-1.67 13.01 -1.34 12.02 -1 11 C-0.77820215 9.10787263 -0.59385985 7.21115528 -0.4375 5.3125 C-0.35371094 4.31863281 -0.26992188 3.32476563 -0.18359375 2.30078125 C-0.12300781 1.54152344 -0.06242187 0.78226563 0 0 Z " fill="#3C7EE1" transform="translate(293,766)"/>
<path d="M0 0 C0 4.64285714 0 4.64285714 -1 7 C-4.0625 9.25 -4.0625 9.25 -7 11 C-5.5140084 6.40693504 -3.14985318 3.56430755 0 0 Z " fill="#3A7BDC" transform="translate(199,758)"/>
<path d="M0 0 C4.455 0.99 4.455 0.99 9 2 C8.01 2.66 7.02 3.32 6 4 C6.66 5.32 7.32 6.64 8 8 C6.85073734 7.04578192 5.70569459 6.08647955 4.5625 5.125 C3.92441406 4.59132813 3.28632812 4.05765625 2.62890625 3.5078125 C1 2 1 2 0 0 Z " fill="#54A8F2" transform="translate(633,379)"/>
<path d="M0 0 C1.8871875 0.0309375 1.8871875 0.0309375 3.8125 0.0625 C2.8225 1.5475 2.8225 1.5475 1.8125 3.0625 C-1.6875 3.375 -1.6875 3.375 -5.1875 3.0625 C-5.8475 2.4025 -6.5075 1.7425 -7.1875 1.0625 C-4.43671116 0.14557039 -2.82801087 -0.04636083 0 0 Z " fill="#3170CE" transform="translate(584.1875,848.9375)"/>
<path d="M0 0 C-0.66 1.32 -1.32 2.64 -2 4 C-2.99 4 -3.98 4 -5 4 C-6.010625 4.515625 -7.02125 5.03125 -8.0625 5.5625 C-9.031875 6.036875 -10.00125 6.51125 -11 7 C-11.66 6.67 -12.32 6.34 -13 6 C-11.21118264 4.99491199 -9.41885304 3.99607264 -7.625 3 C-6.62726562 2.443125 -5.62953125 1.88625 -4.6015625 1.3125 C-2 0 -2 0 0 0 Z " fill="#001B67" transform="translate(601,559)"/>
<path d="M0 0 C0.99 0.33 1.98 0.66 3 1 C1.02 3.31 -0.96 5.62 -3 8 C-3.66 7.67 -4.32 7.34 -5 7 C-3.70700306 4.11562221 -2.34058637 2.12780579 0 0 Z " fill="#4C9CE6" transform="translate(290,436)"/>
<path d="M0 0 C2.1875 1.3125 2.1875 1.3125 4 3 C4 3.66 4 4.32 4 5 C4.66 5.66 5.32 6.32 6 7 C1.75177626 6.52797514 -0.19989709 4.03344482 -3 1 C-2.01 0.67 -1.02 0.34 0 0 Z " fill="#FAD945" transform="translate(570,298)"/>
<path d="M0 0 C0 0.99 0 1.98 0 3 C-2.49529367 5.31705841 -4.65980694 6.40353695 -8 7 C-5.42215154 4.35247996 -3.08351902 2.05567935 0 0 Z " fill="#50A1EE" transform="translate(322,408)"/>
<path d="M0 0 C9.21052632 3.42105263 9.21052632 3.42105263 11 7 C6.89188572 5.55007731 3.53144334 3.54592427 0 1 C0 0.67 0 0.34 0 0 Z " fill="#7775F7" transform="translate(709,376)"/>
<path d="M0 0 C4.92307692 4.30769231 4.92307692 4.30769231 5.3125 7.8125 C5.209375 8.534375 5.10625 9.25625 5 10 C2.20294175 8.60147088 2.09085007 6.86348142 1 4 C0.34 3.01 -0.32 2.02 -1 1 C-0.67 0.67 -0.34 0.34 0 0 Z " fill="#0D2C6E" transform="translate(363,539)"/>
<path d="M0 0 C2.1385485 2.1385485 2.42655063 3.13275314 3 6 C1.02 6 -0.96 6 -3 6 C-2.01 4.02 -1.02 2.04 0 0 Z " fill="#F3D452" transform="translate(642,323)"/>
<path d="M0 0 C0.99 0 1.98 0 3 0 C3.33 1.32 3.66 2.64 4 4 C3.01 4.66 2.02 5.32 1 6 C0 5 0 5 -0.0625 2.4375 C-0.041875 1.633125 -0.02125 0.82875 0 0 Z " fill="#D9634B" transform="translate(287,704)"/>
<path d="M0 0 C2 3 2 3 2 5 C0.625 6.5 0.625 6.5 -1 8 C-1.66 8.66 -2.32 9.32 -3 10 C-2.39009109 6.44219804 -1.4216319 3.3171411 0 0 Z " fill="#E1694A" transform="translate(290,567)"/>
<path d="M0 0 C-1.11666174 3.34998521 -1.74694925 3.79340222 -4.5625 5.6875 C-5.20316406 6.12449219 -5.84382812 6.56148438 -6.50390625 7.01171875 C-6.99761719 7.33785156 -7.49132812 7.66398437 -8 8 C-6.48291727 4.46014029 -4.24676932 0 0 0 Z " fill="#FDE14C" transform="translate(641,329)"/>
<path d="M0 0 C0.99 0.33 1.98 0.66 3 1 C3.6875 3.0625 3.6875 3.0625 4 5 C3.01 5.495 3.01 5.495 2 6 C1.01 5.34 0.02 4.68 -1 4 C-0.67 2.68 -0.34 1.36 0 0 Z " fill="#F5C653" transform="translate(448,300)"/>
</svg>
