<svg xmlns="http://www.w3.org/2000/svg" width="1024" height="1024"><path fill="#FCF9F5" d="M0 0h1024v1024H0z"/><path fill="#003272" d="M697.831 177.275c2.761 2.535 5.47 5.124 8.169 7.725l1.85 1.767c8.379 8.04 16.01 16.305 22.943 25.625 1.118 1.49 2.27 2.952 3.426 4.413 25.82 33.024 41.543 72.709 49.593 113.57l.591 2.982c3.054 16.432 3.859 32.68 3.719 49.364-.034 4.521-.03 9.042-.03 13.563 0 8.363-.015 16.726-.088 25.088-.05 5.871-.055 11.74-.032 17.612q0 3.307-.048 6.614c-.226 15.84 2.755 28.151 8.981 42.693 12.704 31.434 13.421 66.01 13.155 99.38-.037 4.84-.047 9.679-.053 14.518l-.003 2.5-.007 5.046a4569 4569 0 0 1-.144 33.672q-.1 11.452-.076 22.905a713 713 0 0 1-.064 12.061c-.056 3.768-.061 7.532-.027 11.3.005 2.028-.044 4.055-.096 6.082.091 5.397.193 8.849 3.825 13.016 2.768 2.278 5.588 4.267 8.585 6.229a87 87 0 0 1 3.453 3.04l2.797 2.585q2.882 2.68 5.75 5.375l1.926 1.762c6.078 5.76 11.037 12.577 16.074 19.238l1.945 2.566c23.677 32.541 33.652 71.413 34.492 111.184l.105 2.742c.035 5.51-.922 9.168-3.878 13.825-4.763 4.816-9.886 5.037-16.297 5.088l-3.5-.02-3.753.017q-5.169.015-10.339.002c-3.746-.005-7.492.008-11.238.018q-9.853.022-19.706.016c-9.768-.004-19.535.008-29.303.024-18.458.029-36.917.037-55.375.04a74527 74527 0 0 0-55.055.024l-3.089.002q-43.01.03-86.019.03h-3.277l-16.443-.002h-9.903q-51.388-.002-102.776.061a90906 90906 0 0 1-130.78.069c-16.265 0-32.53.02-48.794.045q-24.508.038-49.016.009a6993 6993 0 0 0-29.136.023q-9.726.027-19.451-.007c-3.697-.012-7.393-.014-11.09.01-3.98.026-7.96.006-11.94-.02l-3.485.046c-6.444-.086-10.38-.962-15.39-5.115-3.157-3.508-3.764-6.443-3.775-11.087l-.013-3.22.029-3.432.023-3.546c.377-30.819 7.502-60.247 22.227-87.392l1.863-3.54C167.65 751.179 177.71 738.656 189 727l1.469-1.53c6.788-7.056 13.842-13.396 21.531-19.47 1.756-1.756 1.136-4.227 1.145-6.611l.02-3.695.009-4.092.02-4.282q.022-4.628.036-9.254c.015-4.895.04-9.79.065-14.684q.105-20.886.182-41.771.042-11.524.106-23.047.036-6.089.05-12.177c.08-32.328.08-32.328 2.367-48.387l.467-3.462c3.138-22.67 8.226-46.925 18.533-67.538.095-1.369.129-2.742.131-4.114l.012-2.614-.001-2.877.01-3.027q.012-3.27.017-6.54.012-5.216.041-10.432c.052-9.893.1-19.785.116-29.678.097-52.985.097-52.985 4.674-75.718q.56-3.02 1.114-6.043C250.794 273.33 278.5 226.432 315 188l2.379-2.508c5.503-5.651 11.445-10.596 17.621-15.492l3.215-2.625C372.145 139.86 413.314 121.603 456 113l2.49-.502c83.763-16.264 175.795 7.471 239.341 64.777"/><path fill="#6669FD" d="m510.25 137.688 2.805-.011c17.132-.036 34.17.867 50.945 4.573l3.032.655C604.653 151.267 638.775 167.13 669 191l1.706 1.346c13.86 11.064 26.467 23.646 37.004 37.92a288 288 0 0 0 3.985 5.203C723.327 250.584 732.455 267.515 740 285l.9 2.06c9.336 21.661 14.275 44.602 17.1 67.94l.355 2.828c2.438 20.287 1.842 40.778 1.645 61.172a367 367 0 0 1-3.437-2.812l-1.934-1.583C753 413 753 413 752 410l-3-1c-2.227-2.103-4.34-4.288-6.422-6.535-3.583-3.752-7.434-7.08-11.515-10.277l-1.648-1.32c-3.112-2.404-6.093-4.256-9.708-5.817-4.524-2.061-8.654-4.005-11.707-8.051-2.53-7.275-2.477-15.189-2.81-22.815C702.794 314.188 679.024 274.437 652 246l-1.449-1.531c-31.358-32.932-78.013-54.435-123.728-55.63q-2.137-.03-4.276-.042l-2.346-.021c-2.484-.018-4.967-.024-7.451-.026l-2.575-.002c-12.933.016-25.5.451-38.175 3.252l-2.386.52c-33.281 7.507-63.305 23.261-88.348 46.406-2.061 1.886-4.178 3.667-6.329 5.449-4.963 4.324-8.874 9.473-12.937 14.625l-1.996 2.402C354.089 268.555 349.02 276.208 344 284l-1.687 2.586c-11.23 17.882-19.07 38.663-22.938 59.351l-.4 2.097c-.744 4.308-1.036 8.437-1.041 12.81-.177 14.94-.177 14.94-3.376 18.975-3.746 3.111-8.055 5.056-12.448 7.089-3.393 1.756-6.142 4.128-8.985 6.654l-1.604 1.404A636 636 0 0 0 287 399l-2.676 2.344C278.307 406.659 272.627 412.276 267 418l-2 2a6011 6011 0 0 1-.11-22.345q-.015-3.786-.04-7.572c-.133-19.613.254-39.002 4.275-58.27l.64-3.11c6.684-31.096 18.6-60.804 37.235-86.703l1.315-1.841c6.95-9.682 14.372-18.625 22.685-27.159l1.712-1.774c7.363-7.609 14.832-14.822 23.288-21.226l1.904-1.447c27.806-21 57.436-35.334 91.141-44.046 1.712-.444 3.418-.907 5.123-1.374 3.264-.837 6.52-1.511 9.832-2.133l2.183-.415c14.644-2.635 29.233-2.88 44.067-2.898"/><path fill="#FBC5A7" d="M453.602 408.77c15.258-.761 26.625 5.371 38.398 14.23 6.195 4.067 11.303 5.15 18.688 5.25l3.449.078c9.15-.777 15.935-4.215 23.426-9.328 12.822-8.71 25.923-12.251 41.488-9.316C592.18 412.542 602.93 418.042 613 427l2.082 1.797c14.63 13.504 24.352 35.316 25.23 55.008.616 22.447-3.523 42.288-19.312 59.195-15.758 16.367-36.207 24.854-58 30l-2.39.603c-14.935 3.645-29.884 3.794-45.173 3.835l-2.984.018c-20.449.082-40.732-1.861-60.453-7.456l-2.197-.62C433.41 564.625 418.64 557.624 406 546l-1.941-1.664c-12.23-11.108-18.948-28.793-20.28-45.033-1.02-24.411 4.688-48.025 21.534-66.553 13.485-14.312 28.716-22.247 48.289-23.98"/><path fill="#FB87A1" d="m501.453 187.797 2.346-.022c32.72-.23 32.72-.23 48.201 3.225l2.779.618c33.965 7.803 65.57 22.212 90.647 46.839a486 486 0 0 0 4.914 4.73c7.345 7.081 13.735 14.515 19.66 22.813l2.348 3.203C694.834 300.746 707.036 337.407 708 376a80 80 0 0 1-8.59-3.812C676.88 360.743 652.91 353.843 628 350l-2.362-.373c-8.51-1.319-17.048-2.077-25.638-2.627l-1-8c3-1 3-1 5.938-.062 8.02 2.453 16.23 1.799 23.808-1.68 5.501-3.07 10.004-6.873 12.59-12.73 1.995-7.594 1.883-15.909-1.399-23.09-3.995-6.776-9.412-11.055-16.937-13.438-2.732-.306-5.157-.478-7.875-.437l-2.125.02c-5.784.179-10.176 1.256-15 4.417-.857.56-.857.56-1.73 1.133-4.372 3.26-7.772 7.556-8.594 13.023l-.176 2.156L587 312c-2.031 1.23-2.031 1.23-4 2l-2.625-2.875c-18.22-18.073-41.717-27.495-67.125-27.625l-3.622-.02c-24.775.355-48.011 10.85-65.515 28.329L442 314c-1.937-.734-1.937-.734-4-2-.687-1.953-.687-1.953-1-4.25-1.42-7.589-5.812-12.416-12-16.75-7.828-4.194-17.48-4.628-25.98-2.121-7.763 3.558-12.179 8.57-15.457 16.371-2.363 7.207-1.999 14.022 1 21 3.511 6.174 9.314 11.153 16.109 13.32 6.8 1.255 13.661 1.074 20.265-.945 2.118-.57 2.118-.57 4.063-.625 2.594 1.56 4.387 3.445 6 6v2l-3.291.38C391.261 350.616 357.091 356.138 324 373q-2.23 1.117-4.46 2.23L316 377c-1.451-46.02 20.126-91.388 50.887-124.7 1.909-2.078 3.733-4.204 5.55-6.363 30.695-35.05 82.615-57.856 129.016-58.14"/><path fill="#3271D0" d="M260 709c3 1 3 1 4.691 3.922a535 535 0 0 1 1.872 3.828c4.476 8.821 9.929 16.939 17.117 23.813 2.908 3.054 3.774 5.8 5.035 9.742 1.258 2.639 2.383 3.864 4.406 5.902 3.235 3.63 3.434 6.26 3.202 11.012l-.198 2.593c-.407 11.197 1.653 18.395 8.89 27.149 5.9 6.061 13.673 10.53 22.16 11.344 4.21.765 7.449 2.334 11.15 4.363 8.556 4.471 17.337 7.62 26.488 10.644l4.989 1.68c12.376 4.151 24.817 8.092 37.284 11.96C422.47 841.729 437.738 846.847 453 852v1H164c0-12.392 0-12.392.918-16.98l.605-3.064.665-3.144.683-3.309c6.027-28.351 18.2-54.387 38.29-75.523 1.892-1.954 1.892-1.954 3.46-4.242L210 745h2v-2h2v-2c12.047-13.236 30.16-24.08 46-32M762 709c4.682 1.38 8.723 3.353 12.875 5.875l1.957 1.186c12.867 7.965 24.31 17.441 35.168 27.939l2.195 2.04c23.79 22.633 38.356 53.993 44.117 85.898l.521 2.87.468 2.782.411 2.433c.417 4.307.288 8.65.288 12.977H571c2.688-1.792 4.612-2.652 7.632-3.632l2.845-.931 3.078-.992 3.19-1.039q5.063-1.646 10.13-3.281 3.356-1.09 6.71-2.184c9.464-3.076 18.928-6.137 28.448-9.032 30.06-8.647 30.06-8.647 58.315-21.6 3.813-1.882 7.722-2.686 11.855-3.602 9.219-2.33 15.386-7.484 20.442-15.398 5.891-10.035 6.316-20.033 4.355-31.309h2l.777-1.555L732 756l1.629-3.32c3.69-7.336 7.47-13.329 13.207-19.293 6.413-7.073 10.733-15.995 15.164-24.387"/><path fill="#EA634D" d="M340 631c6.085 1.217 11.83 2.414 17.758 4.074l2.185.608q2.354.654 4.706 1.313c4.39 1.228 8.785 2.443 13.18 3.657l2.885.798c12.702 3.503 25.432 6.899 38.161 10.3l3.51.938 6.857 1.832c10.424 2.785 20.846 5.572 31.266 8.37l3.364.902 5.831 1.567c1.78.497 3.543 1.056 5.297 1.641l-1 164c-12.372-3.374-12.372-3.374-16.862-4.802l-3.078-.976-3.232-1.03-3.471-1.101q-3.664-1.162-7.327-2.327-9.566-3.04-19.135-6.065l-1.925-.609a4273 4273 0 0 0-36.033-11.215l-2.523-.774Q373.708 800.046 367 798c1.395-2.886 2.88-5.165 4.938-7.625 5.13-6.749 6.608-14.041 6.062-22.375l-.875-3.562C377 761 377 761 378.059 759.43a195 195 0 0 1 3.175-3.332C389.2 746.636 390.86 735.89 390 724c-1.567-6.699-4.307-13.85-9.672-18.426L379 704c.448-2.035.91-4.067 1.426-6.086 1.969-9.993 1.651-19.356-3.531-28.289-5.537-7.672-11.968-11.773-20.895-14.625l-3-1c-2.393-.226-4.79-.408-7.187-.562L339 653zM685 630v23l-7.25.188c-10.466.53-19.375 3.554-27.066 10.925-6.112 6.85-9.077 14.186-8.887 23.414.306 3.722 1.006 7.34 1.765 10.993C644 701 644 701 644 705c-1.185 1.449-2.378 2.893-3.625 4.29-7.177 8.93-7.292 19.77-6.375 30.71 1.49 7.26 5.554 12.413 10.293 17.969C646 760 646 760 647 762c-.32 1.336-.657 2.67-1 4-.83 10.037.212 18.532 6.625 26.563 2.128 2.45 2.128 2.45 4.375 3.437v2c-25.445 8.173-50.9 16.314-76.385 24.358l-7.234 2.288a7392 7392 0 0 1-10.131 3.198l-3.067.973-2.792.876-2.437.77C553 831 553 831 551 831V667c24.153-6.9 24.153-6.9 32.496-9.148l2.893-.784q4.524-1.223 9.048-2.443l6.373-1.723a6896 6896 0 0 1 34.44-9.215c22.663-5.914 22.663-5.914 45.041-12.791C684 630 684 630 685 630"/><path fill="#4694E1" d="M633 379c35.161 6.444 68.2 23.286 94 48l2.852 2.625C763.184 460.945 776.602 507.911 781 552l.245 2.255c.735 7.235.891 14.384.869 21.652v3.758q-.001 5.048-.013 10.095c-.006 3.53-.006 7.06-.008 10.59q-.005 10.003-.021 20.006-.015 11.397-.022 22.796-.016 23.424-.05 46.848l-11-6 .656-3.371c2.279-13.11 2.68-26.044 2.719-39.317l.023-2.607c.089-12.508-1.05-24.422-3.398-36.705l-.453-2.377C763.152 561.355 743.917 527.885 717 500l-1.934-2.125c-4.319-4.618-9.199-8.457-14.191-12.312l-2.22-1.718c-3.491-2.645-6.948-5.094-10.8-7.189-9.259-5.047-9.259-5.047-10.953-9.617-.278-2.322-.47-4.656-.59-6.992-1.437-27.782-20.818-53.896-37.924-74.376A380 380 0 0 1 633 379"/><path fill="#4694E0" d="m391 380-1.33 1.276c-19.086 18.656-37.083 47.822-40.307 74.697-1.768 13.543-1.768 13.543-6.273 17.734-2.94 1.76-6.065 3.074-9.217 4.405-3.142 1.49-5.784 3.548-8.498 5.7l-1.61 1.266C317.91 489.763 312.428 494.833 307 500l-2.293 2.098c-33.176 31.363-53.136 81.011-54.914 126.198-.118 4.297-.125 8.593-.106 12.891l.001 2.28c.018 12.039.838 23.754 3.037 35.615C253 681 253 681 253 685l-11 5q-.106-23.083-.155-46.166a7885 7885 0 0 0-.071-21.447q-.046-9.371-.056-18.742-.005-4.94-.035-9.88c-.333-55.26 8.076-114.883 47.505-156.777 1.968-2.059 1.968-2.059 3.812-4.988h2l.742-1.75c14.639-26.186 59.365-41.64 85.988-49.637 6.814-1.84 6.814-1.84 9.27-.613"/><path fill="#FDCC4E" d="m535 241 4.086.742C568.233 247.316 593.13 262.268 614 283l2 3-3 .664c-9.68 2.27-17.023 4.715-22.937 13.211-1.676 2.885-2.35 5.185-2.625 8.5L587 312c-2.027 1.227-2.027 1.227-4 2l-2.625-2.875c-18.22-18.073-41.717-27.495-67.125-27.625l-3.622-.02c-24.775.355-48.011 10.85-65.515 28.329L442 314c-1.937-.734-1.937-.734-4-2-.687-1.953-.687-1.953-1-4.25-1.411-7.54-5.79-12.488-12-16.75-5.04-2.515-10.54-3.732-16-5 12.865-22.806 45.33-36.439 69.096-43.234C496.47 237.92 516.38 237.134 535 241"/><path fill="#FAEAD1" d="M487.746 622.134c8.888 6.03 17.93 13.374 23.254 22.866v2h2l.754-2.203c7.3-16.387 28.203-27.435 44.225-33.66 3.977-1.472 7.987-2.828 12.021-4.137l2.032-.67c64.024-20.645 64.024-20.645 86.343-13.205C664 597.143 666.461 601.824 669 608c-19.593 5.758-39.236 11.309-58.98 16.523l-2.232.59a7889 7889 0 0 1-22.227 5.834c-13.928 3.635-27.825 7.334-41.631 11.412l-3.316.978c-5.614 1.683-11.096 3.521-16.552 5.663-11.478 4.098-19.396 1.779-30.368-2.459-8.621-3.281-17.368-5.862-26.257-8.291l-2.272-.622c-4.847-1.324-9.698-2.63-14.55-3.928q-4.047-1.084-8.092-2.171a9728 9728 0 0 0-49.484-13.15l-4.65-1.224a3910 3910 0 0 0-8.446-2.214A499 499 0 0 1 356 608c.741-3.3 1.753-5.356 3.812-8.062l1.52-2.036c19.796-22.578 105.41 10.59 126.414 24.232"/><path fill="#E9644D" d="M679 501c5.647 4.069 10.871 8.417 15.938 13.188l2.097 1.967A133 133 0 0 1 712 533c-2.491 1.245-4.042 1-6.812.875-4.304-.062-6.671.487-10.188 3.125h-2c-2.968 7.049-3.038 13.927-.375 21.063 4.372 9.737 9.655 15.87 18.75 21.375 4.844 1.037 10.04.909 14.5-1.415 3.54-2.744 5.419-5.947 7.125-10.023 12.832 15.003 18.285 45.821 18 65l-1.793.297c-6.064 1.147-9.624 2.526-13.617 7.437-4.66 6.907-4.527 14.195-3.59 22.266 1.492 6.004 4.956 9.363 9.96 12.813 2.582 1.503 5.146 2.464 8.04 3.187-1.938 7.867-4.538 15.23-7.687 22.688l-1.26 3.029Q739.535 708.362 738 712c-3 0-3 0-4.75-1.687C732 708 732 708 732.188 705.625a91 91 0 0 1 1.84-5.336c2.484-8.402 2.064-18.076-1.708-26.016-5.49-9.454-12.145-15.286-22.32-19.273l-.044-3.668a2459 2459 0 0 0-.218-13.52q-.051-2.921-.084-5.842c-.034-2.806-.086-5.61-.142-8.415l-.02-2.624c-.123-5.094-.878-8.43-3.492-12.931v-2l-2.187-.875c-1.76-.704-3.513-1.43-5.25-2.187-2.563-1.099-2.563-1.099-5.465-.973C690 601 690 601 688.865 599.446c-1.1-2.24-2.056-4.507-2.99-6.821-5.919-13.518-13.541-26.281-23.156-37.52-2.106-2.58-3.904-5.315-5.719-8.105l1.758-2.203c8.228-10.591 13.397-21.28 17.164-34.133.956-3.25 1.986-6.458 3.078-9.664M346 501l.813 3.121c4.18 15.44 10.039 29.383 20.187 41.879-1.395 3.143-3.045 5.235-5.437 7.688-9.852 10.92-16.8 24.157-23.47 37.167l-1.104 2.149c-.885 1.785-1.681 3.614-2.466 5.445C333 601 333 601 330.695 602.102l-2.57.523c-4.252 1.06-7 2.152-10.125 5.375-1.7 2.86-2.259 4.999-2.319 8.31l-.06 2.547-.035 2.721-.059 2.808c-.06 2.955-.106 5.91-.152 8.864l-.117 6.016q-.142 7.366-.258 14.734l-2.45 1.172-3.238 1.578-3.199 1.547c-5.02 2.747-8.499 5.82-11.738 10.515l-1.727 2.458c-3.683 6.1-5.156 11.035-5.023 18.043l.018 2.245c.137 5.821 1.125 11.034 3.357 16.442l-3 2c-5.833-9.696-10.658-19.553-15-30 3-2 3-2 6.313-2.812 5.014-1.615 8.116-3.77 10.949-8.13 3.452-6.77 3.867-13.42 2.078-20.769-2.061-5.942-4.872-10.078-10.34-13.289-2.95-1.235-5.905-2.2-9-3 1.986-22.613 7.86-44.226 17-65a203 203 0 0 1 3.078 4.719c2.76 4.196 4.998 6.64 9.922 8.281 6.382.72 10.703-.359 16-4 6.258-5.04 9.927-10.634 13-18l1.313-3.125c1.225-5.124 1.309-9.227-.563-14.187-2.451-3.765-4.517-5.277-8.75-6.688a83 83 0 0 0-4.937-.125l-2.59-.008c-2.308.124-4.25.54-6.473 1.133 4.243-6.018 8.952-11.27 14.188-16.437l2.256-2.24C342.032 501 342.032 501 346 501"/><path fill="#6669FD" d="M573 304a338 338 0 0 1 10 9c-1.2 3.598-2.311 4.212-5.312 6.438-3.163 2.408-6.02 4.834-8.668 7.789l-1.525 1.67a95 95 0 0 0-2.856 3.33c-2.058 2.262-3.784 3.71-6.887 3.94-2.628-.241-5.161-.663-7.752-1.167a793 793 0 0 0-4.848-.754l-2.532-.402c-21.04-3.19-43.473-3.57-64.429.402l-2.046.367c-1.566.283-3.127.592-4.685.917-6.413 1.074-6.413 1.074-9.216-.543-1.592-1.547-2.91-3.151-4.244-4.925q-1.499-1.808-3.016-3.601l-1.494-1.79c-3.35-3.757-7.444-6.708-11.49-9.671 5.061-11.98 21.816-20.341 33.25-25.375 33.166-13.407 70.082-8.378 97.75 14.375"/><path fill="#FCC648" d="M202.125 172.063c3.005.98 3.933 1.54 5.875 3.937.828 2.233.828 2.233 1.465 4.824l.736 2.87.737 2.994c3.038 12.308 6.576 21.974 17.757 29.007 6.552 3.477 13.18 5.592 20.371 7.348 2.891.943 4.177 1.52 5.934 3.957.5 2.875.5 2.875 0 6-3.923 4.964-7.852 6.241-13.687 7.875-10.73 3.323-18.598 7.654-24.848 17.316-3.396 6.512-5.054 13.581-6.465 20.747-.854 4.033-2.245 6.913-5 10.062-2.375 1.188-2.375 1.188-5 1-3.885-2.558-6.14-4.326-7.32-8.89q-.433-2.175-.805-4.36-.468-2.288-.953-4.574l-.463-2.197c-2.276-9.812-8.125-17.673-16.15-23.554-4.696-2.898-9.988-4.217-15.239-5.79-5.036-1.61-8.367-2.767-11.07-7.635-.062-3.625-.062-3.625 1-7 3.816-2.883 7.7-3.81 12.313-4.875 5.96-1.49 10.907-3.191 15.687-7.125l1.855-1.523c8.75-7.948 11.037-17.94 13.183-29.165.884-4.26 1.4-6.71 4.423-9.949C199 172 199 172 202.125 172.063"/><path fill="#FCCB4D" d="m498 675 10 2c6.746.37 11.152-.478 18-2v167c-10.242 4.552-10.242 4.552-14 4.5l-2.25.031C507 846 507 846 498 842z"/><path fill="#FCC648" d="M847 419c2.95 3.886 3.832 8.01 4.813 12.688 2.073 8.87 4.83 16.258 12.5 21.75 3.668 2.193 7.326 3.631 11.41 4.851 2.475.773 4.83 1.696 7.215 2.711l2.214.938C887 463 887 463 889 466c0 2.438 0 2.438-1 5-3.44 2.999-6.5 4.23-10.875 5.438-8.691 2.45-14.983 7.11-20.125 14.562-3.388 6.342-4.807 13.09-6.094 20.117-1.042 3.315-2.196 4.744-4.906 6.883-3 .563-3 .563-6 0-4.264-4.096-4.876-8.119-5.812-13.687-1.94-9.82-5.244-16.754-13.563-22.75-4.345-2.622-8.764-4.187-13.625-5.563q-2.474-.732-4.937-1.5l-2.215-.656C798 473 798 473 796 470c.19-3.048.35-5.194 2.297-7.61 1.936-1.58 3.337-2.06 5.758-2.636l2.363-.6q2.445-.588 4.89-1.172c4.833-1.23 7.9-2.586 11.692-5.982h2l.852-1.734a100 100 0 0 1 2.296-4.282c3.291-5.995 5.04-11.908 6.508-18.538.75-3.341 1.418-5.557 3.344-8.446 3.59-1.197 5.383-1.055 9 0"/><path fill="#033072" d="M487 516c2.489 2.053 4.418 4.276 6.434 6.785 4.343 5.314 8.562 8.36 15.566 9.215 6.519.64 11.162-1.459 17-4l3-1c1.067-1.8 1.067-1.8 2-4 1.362-2.6 2.433-4.554 4.75-6.375 3.386-.94 5.872-.485 9.25.375 2.934 2.366 2.999 3.99 3.5 7.75-.33 7.114-4.785 11.804-9.75 16.5-10.856 9.225-23.09 9.797-36.75 8.75-9.324-1.79-17.551-7.06-23-14.875-2.313-4.114-3.346-8.4-3-13.125 2.038-5.396 5.411-6.782 11-6"/><path fill="#F8C6A8" d="m670.208 719.823 2.56-.039 2.755-.022 2.844-.025q2.977-.02 5.956-.032c3.034-.017 6.066-.061 9.099-.105q2.895-.015 5.789-.026l2.743-.053c4.214.015 6.447.105 10.095 2.38 3.596 3.869 3.283 7.221 3.236 12.33-.395 3.836-1.69 5.958-4.285 8.769-2.79 1.68-4.881 2.255-8.123 2.29l-2.427.04-2.598.006-2.698.02q-2.822.015-5.643.015a736 736 0 0 0-8.605.078q-2.745.009-5.492.012l-2.586.043c-5.425-.04-8.522-.893-12.828-4.504-2.904-4.192-2.772-9.1-2-14 2.753-5.283 6.411-7.1 12.208-7.177"/><path fill="#022F72" d="M430.438 473.188c5.248 1.197 6.79 4.426 9.562 8.812 3.118 4.526 5.68 6.404 11 8 5.668.274 9.668-1.3 14-5 2.793-3.242 5.405-6.6 8-10 1-1 1-1 3.75-1.312 4.14.398 5.589 1.103 8.25 4.312 1.258 5.566-.04 10.293-2.809 15.156-5.034 7.79-11.26 12.417-20.191 14.844-11.554.922-21.059.566-30.25-7.062-5.68-5.441-9.098-10.959-10.375-18.75 1.08-5.507 3.68-7.728 9.063-9"/><path fill="#F8C6A7" d="m320.306 719.694 2.55-.049 2.73-.016c.934-.01 1.869-.018 2.832-.027q2.962-.022 5.926-.028c3.014-.011 6.025-.06 9.039-.111q2.883-.015 5.765-.022l2.719-.059c4.306.031 7.24.236 10.686 2.965 3.4 3.686 3.801 6.626 3.728 11.59-.588 4.311-3.045 7.088-6.361 9.704-4.033 1.877-7.55 1.808-11.947 1.793l-2.626.015q-2.742.01-5.484-.003c-2.788-.008-5.574.02-8.361.052q-2.67.003-5.342-.002l-2.51.034c-5.35-.064-8.397-.991-12.65-4.53-2.936-4.205-2.52-9.073-2-14 2.26-5.425 5.547-7.223 11.306-7.306"/><path fill="#022F72" d="M551 474c2.345 2.077 4.142 4.488 6 7 4.55 5.897 4.55 5.897 11.367 8.336 5.758.09 9.14-.377 13.633-4.336a67 67 0 0 0 5.11-6.652c2.299-3.173 3.496-4.27 7.39-5.036 3.5.688 3.5.688 6.5 2.625 2.385 3.652 2.588 5.327 1.824 9.532-3.027 9.297-9.169 16.113-17.824 20.531-8.419 2.914-18.624 3.867-27 .313a83 83 0 0 1-4-2.313l-1.887-1.027c-6.087-3.711-9.004-9.755-12.113-15.973-.413-3.058-.477-5.947 0-9 3.181-3.836 6.103-5.1 11-4"/><path fill="#FAC6A8" d="m324.52 676.664 2.23-.02a697 697 0 0 1 4.673-.015c2.37-.004 4.74-.04 7.11-.078q2.275-.009 4.549-.012l2.131-.043c5.056.046 7.905 1.318 11.787 4.504 2.698 4.048 2.657 7.247 2 12-1.667 3.397-2.8 5.373-6.176 7.137-5.477 1.674-11.285 1.274-16.97 1.289-2.282.011-4.56.06-6.84.111q-2.193.015-4.385.022l-3.998.04c-4.722-.78-6.286-2.248-9.631-5.599-1.735-3.47-1.472-7.207-1-11 3.638-6.9 7.05-8.313 14.52-8.336"/><path fill="#FAC7A8" d="M686.016 676.444c2.28-.006 4.555-.06 6.834-.118 12.193-.14 12.193-.14 16.63 3.584 3.2 3.925 3.87 5.885 3.805 10.988-.467 3.44-2.066 5.513-4.285 8.102-5.073 3.428-11.756 2.372-17.644 2.37-2.217.005-4.432.041-6.649.08q-2.13.009-4.262.01c-1.283.01-2.567.017-3.89.026-5.108-.698-8.26-2.845-11.43-6.861-1.383-3.227-1.623-5.142-1.125-8.625 5.435-9.9 11.64-9.56 22.016-9.556"/><path fill="#FBCF4D" d="M381 322h2l1.5 3.563c3.066 6.09 7.968 10.56 14.188 13.375 7.123 2.271 15.175 1.85 22.25-.313 2.117-.57 2.117-.57 4.062-.625 2.594 1.56 4.387 3.445 6 6v2l-3.434.411a5568 5568 0 0 0-12.832 1.56q-2.756.338-5.513.666c-10.195 1.222-20.252 2.597-30.285 4.801C376 354 376 354 372 354c.293-11.324 4.497-21.742 9-32"/><path fill="#F9C8A8" d="m687.875 763.625 3.629-.113 3.488-.035 3.199-.06C701 764 701 764 703.342 766.39c2.486 3.914 2.465 7.119 1.658 11.61-2.364 4.116-4.526 5.649-9 7-3.17.31-6.316.325-9.5.313l-2.55.048c-4.812.004-8.05-.23-11.95-3.361-2.36-2.929-2.968-4.747-3.437-8.5.508-4.07 1.57-5.633 4.437-8.5 4.346-2.173 10.102-1.319 14.875-1.375"/><path fill="#FAC8A8" d="m335.938 763.438 3.576-.073c8.583.015 8.583.015 12.767 2.889 2.546 4.068 2.638 7.1 1.719 11.746-2.157 3.621-4.162 5.393-8 7-3.115.43-6.233.37-9.375.375l-2.54.074c-5.523.026-8.738-.721-13.085-4.449-2.123-3.185-2.32-4.245-2.375-7.937l-.086-2.59c1.62-8.686 10.556-7.099 17.399-7.035"/><path fill="#F9CF4E" d="M642 323c2.637 2.637 3.383 5.594 4.5 9.063l.669 2.048c2.114 6.584 3.964 12.907 3.831 19.889l-2.528-.427c-16.125-2.708-32.16-5.274-48.472-6.573l-1-8c3-1 3-1 5.938-.062 8.024 2.454 16.225 1.793 23.808-1.676 6.372-3.567 10.011-7.777 13.254-14.262"/><path fill="#3677D7" d="m630 835-4 1 1 8-2.875 1.25c-3.508 1.58-3.508 1.58-5.125 5.75l111 1v1H571c2.724-1.816 4.709-2.683 7.775-3.68l2.933-.96 3.163-1.02 3.254-1.06q3.408-1.11 6.817-2.212 5.219-1.689 10.435-3.39l6.62-2.15c1.04-.34 2.083-.678 3.156-1.027l2.942-.95 2.584-.837L623 835l2.119-.66C627 834 627 834 630 835"/><path fill="#4E9FEA" d="m242 583 2 1v74l3 1c-.01-.576-.02-1.153-.032-1.746-.293-18.836.288-37.733 4.032-56.254h1q-.215 3.219-.437 6.438l-.247 3.62q-.316 3.947-.836 7.872c-.817 7.22-.72 14.501-.73 21.758l-.007 2.34c-.014 12.199.753 24.032 2.982 36.054C253 681 253 681 253 685l-11 5z"/><path fill="#FDE64B" d="m498 675 7 2c-3 1-3 1-6 0 .023 4.043.1 8.083.188 12.125l.017 3.46c.186 7.1.772 10.4 5.795 15.415v4l-3 1-1-3c-1.002 27.661-1.126 55.297-1.069 82.974q.014 8.33.02 16.659.016 16.184.049 32.367h-2z"/><path fill="#3A7CDE" d="M433 847c7.087.545 13.328 2.61 20 5v1h-66v-1l46-1z"/><path fill="#FADD4C" d="M424.063 338.063c2.939 1.422 4.802 3.505 6.937 5.937v2c-6.026 1.071-11.89 1.1-18 1v-1h7c-.702-2.85-.702-2.85-2-4-2.728.183-5.426.52-8.14.844-2.837.155-5.114-.163-7.86-.844v-1l2.852-.148 3.773-.227c1.23-.07 2.46-.14 3.727-.21 3.99-.454 7.774-2.472 11.71-2.353"/><path fill="#FDD647" d="m498 270 1 2h4l1 5h-3l3 1v3h16v1c-8.014.647-15.958 1.167-24 1v-1l6-1-2.437-1.625c-3.028-2.806-3.288-4.343-3.563-8.375z"/><path fill="#397ADB" d="M304.063 846c1.937 1 1.937 1 3.937 6h23v1h-34c3.5-7 3.5-7 7.063-7"/><path fill="#002767" d="m314 492 3 1-18 18-2-2z"/><path fill="#FADB47" d="M435 299h2l3 9c3.412-.853 6.675-1.866 10-3a324 324 0 0 1-2.75 3.375l-1.547 1.898c-1.785 1.81-3.382 2.728-5.703 3.727-2.276-2.276-2.453-3.29-3.062-6.375-.586-2.895-1.2-5.764-1.938-8.625"/><path fill="#3A84D2" d="M775 632h1l.148 2.773.227 3.602c.07 1.183.14 2.367.21 3.586.117 3.145.117 3.145 2.415 5.039.625 2.625.625 2.625 1 5h1v6l-1-2h-2l-2 2c-1.305-2.61-1.113-4.527-1.098-7.445l.01-3.262.025-3.418.014-3.441q.018-4.218.049-8.434"/><path fill="#EEC565" d="m519 277 3.25.5c3.78.588 3.78.588 7.75.5v2c-7.806 3.903-15.488 3.279-24 3v-1l13-1-1-2z"/><path fill="#0E1F65" d="m613 549 2 1c-10.107 9-10.107 9-14 9l-2 4h-3l-3.062 1.563L590 566l-2-1 1.649-.93a2283 2283 0 0 0 7.476-4.258l2.594-1.462c4.836-2.772 9.129-5.627 13.281-9.35"/><path fill="#F9D64F" d="m501 836 4 2-1 3 7 1v3c-7.429.286-7.429.286-11-2z"/><path fill="#0A2D71" d="m742 674 10 4-2 7 2 1h-2v2h-2l-.375 2.438L747 693l-2 1c3.075-10.558 3.075-10.558 5-15l-8-2z"/><path fill="#4E9FEB" d="m312 415 2 1a314 314 0 0 1-10.625 10.25l-2.852 2.64C298 431 298 431 295 432c1.528-3.755 3.786-5.85 6.813-8.5l2.582-2.281A267 267 0 0 1 312 415"/><path fill="#FBD747" d="m576 306 2.813.563c3.2.678 3.2.678 6.187-.563l1 7c-4 0-4 0-5.703-1.531l-1.547-1.969-1.578-1.969z"/><path fill="#52A5F0" d="m391 380-7 7v-3c-3.787 0-7.265.425-11 1 1-2 1-2 4.309-3.105q2.061-.555 4.128-1.082l2.104-.577c5.202-1.364 5.202-1.364 7.459-.236"/><path fill="#7472FB" d="M334 210c0 4.263-2.477 6.117-5.25 9.063l-1.488 1.642c-2.531 2.73-4.751 4.95-8.262 6.295 4.395-6.325 9.45-11.672 15-17"/><path fill="#3777D8" d="M180 788c1.42 2.839.53 4.878-.262 7.832-1.445 4.245-3.551 7.981-6.738 11.168.588-4.453 1.733-8.188 3.5-12.312l1.344-3.176C179 789 179 789 180 788"/><path fill="#F66E46" d="M286 695c1.904 2.856 2.695 4.931 3.625 8.188.26.9.52 1.802.79 2.73L291 708l-3 2c-2.175-2.958-3.067-4.34-2.687-8.062L286 699z"/><path fill="#7673FB" d="m350 195 2 1-15 14-2-1q2.34-2.38 4.688-4.75l2.636-2.672c2.456-2.366 4.977-4.497 7.676-6.578"/><path fill="#397BDC" d="M263 710c1.203 1.777 1.203 1.777 2.25 3.938l1.078 2.152L267 718l-1 2-.75-2.375c-1.017-2.692-1.017-2.692-3.125-3.937-2.387-.893-2.387-.893-6.125-.688v-2c3.625-2.125 3.625-2.125 7-1"/><path fill="#6C70F0" d="M598 339c2 3 2 3 2 7h-8z"/><path fill="#F7DCB3" d="m412 426 2 1-13 14c0-4.099 1.616-5.108 4.375-8.062l2.46-2.66q2.056-2.166 4.165-4.278"/><path fill="#092270" d="m623 336 2 1v3c-2.995.872-5.636 1.108-8.75 1.063l-2.422-.028L612 341v-2l1.898-.148 2.477-.227c.812-.07 1.624-.14 2.46-.21 2.368-.244 2.368-.244 4.165-2.415"/><path fill="#FBDA47" d="m550 289 3.375 1c3.999 1.255 3.999 1.255 7.625 0v3l3 1v3c-4.972-1.764-9.434-4.394-14-7z"/><path fill="#3B7BDD" d="M167 827c.849 2.935 1.109 5.512 1.063 8.563l-.028 2.316L168 840v3l-2-1-1 2c-.218-6.002.494-11.192 2-17"/><path fill="#3777D7" d="M662 825c-2.062 2.063-2.062 2.063-5 4-3.812-.25-3.812-.25-7-1 1-2 1-2 4.313-3.187 3.263-.72 4.68-1.016 7.687.187"/><path fill="#3A7ADB" d="m230 728 2 1-13 11-2-1q2.404-2.19 4.813-4.375l2.707-2.46C227 730 227 730 230 728"/><path fill="#F5F1E6" d="m525 631 2 1-1.496 1.39-1.942 1.86-1.933 1.828c-1.77 1.799-1.77 1.799-2.164 4.094L519 643l-3 1c0-3.739.905-4.366 3.375-7.062l1.898-2.098c1.221-1.3 2.466-2.579 3.727-3.84"/><path fill="#50A0EC" d="M247 529c1.001 3.31 1.104 6.3 1.063 9.75l-.028 2.984L248 544l-3 1q.21-3.72.438-7.437l.119-2.143c.33-5.307.33-5.307 1.443-6.42"/><path fill="#FCDA48" d="m442 258 2 1c-2.801 3.113-5.05 4.651-9 6l-2.812 1.125L430 267c3.665-3.998 7.111-6.602 12-9"/><path fill="#505AFC" d="M453 303c0 3 0 3-1.969 5.043l-2.531 2.144-2.531 2.168L444 314c0-3 0-3 1.969-5.043l2.531-2.144 2.531-2.168z"/><path fill="#3778D9" d="M347 820c6.334-.345 11.103.707 17 3-3.906 1.302-6.195.478-10.187-.437l-3.856-.872L347 821z"/><path fill="#092C6F" d="m633 723 3 1-.5 2.438c-.592 4.22-.585 8.309-.5 12.562l-2 1z"/><path fill="#3C7EE1" d="M293 766h1l1 15-4-1 1-3c.222-1.892.406-3.789.563-5.687l.253-3.012z"/><path fill="#3A7BDC" d="M199 758c0 4.643 0 4.643-1 7-3.062 2.25-3.062 2.25-6 4 1.486-4.593 3.85-7.436 7-11"/><path fill="#54A8F2" d="m633 379 9 2-3 2 2 4a707 707 0 0 1-3.437-2.875l-1.934-1.617C634 381 634 381 633 379"/><path fill="#3170CE" d="M584.188 848.938 588 849l-2 3c-3.5.313-3.5.313-7 0l-2-2c2.75-.917 4.36-1.109 7.188-1.062"/><path fill="#001B67" d="m601 559-2 4h-3l-3.062 1.563L590 566l-2-1q2.684-1.507 5.375-3l3.023-1.687C599 559 599 559 601 559"/><path fill="#4C9CE6" d="m290 436 3 1-6 7-2-1c1.293-2.884 2.66-4.872 5-7"/><path fill="#FAD945" d="M570 298c2.188 1.313 2.188 1.313 4 3v2l2 2c-4.248-.472-6.2-2.967-9-6z"/><path fill="#50A1EE" d="M322 408v3c-2.495 2.317-4.66 3.404-8 4 2.578-2.648 4.916-4.944 8-7"/><path fill="#7775F7" d="M709 376c9.21 3.421 9.21 3.421 11 7-4.108-1.45-7.469-3.454-11-6z"/><path fill="#0D2C6E" d="M363 539c4.923 4.308 4.923 4.308 5.313 7.813L368 549c-2.797-1.399-2.91-3.137-4-6l-2-3z"/><path fill="#F3D452" d="M642 323c2.139 2.139 2.427 3.133 3 6h-6z"/><path fill="#D9634B" d="M287 704h3l1 4-3 2c-1-1-1-1-1.062-3.562z"/><path fill="#E1694A" d="M290 567c2 3 2 3 2 5-1.375 1.5-1.375 1.5-3 3l-2 2c.61-3.558 1.578-6.683 3-10"/><path fill="#FDE14C" d="M641 329c-1.117 3.35-1.747 3.793-4.562 5.688l-1.942 1.324L633 337c1.517-3.54 3.753-8 8-8"/><path fill="#F5C653" d="m448 300 3 1c.688 2.063.688 2.063 1 4l-2 1-3-2z"/></svg>